<svg xmlns="http://www.w3.org/2000/svg" width="41" height="41" viewBox="0 0 41 41">
  <g id="Android" transform="translate(-0.171 -0.406)">
    <circle id="Oval" cx="20.5" cy="20.5" r="20.5" transform="translate(0.171 0.406)" fill="#8dc33d"/>
    <path id="Android-2" data-name="Android" d="M9.313,18.215H9.269a1.07,1.07,0,0,1-1.05-1.087V14.574H6.781v2.554a1.07,1.07,0,0,1-1.05,1.087H5.686a1.069,1.069,0,0,1-1.048-1.087V14.574H3.608a.981.981,0,0,1-.963-1V6.113h9.712v7.465a.981.981,0,0,1-.963,1h-1.03v2.554A1.07,1.07,0,0,1,9.313,18.215Zm4.639-5.376h-.044a1.07,1.07,0,0,1-1.05-1.087V7.025a1.069,1.069,0,0,1,1.05-1.086h.043A1.069,1.069,0,0,1,15,7.025v4.728A1.069,1.069,0,0,1,13.952,12.84Zm-12.858,0H1.048A1.069,1.069,0,0,1,0,11.753V7.025A1.069,1.069,0,0,1,1.048,5.939h.045A1.07,1.07,0,0,1,2.143,7.025v4.728A1.069,1.069,0,0,1,1.094,12.84ZM12.376,5.661H2.626c-.01-.11-.014-.2-.014-.3A3.985,3.985,0,0,1,3.294,3.15,4.7,4.7,0,0,1,5.082,1.586L4.264.279A.184.184,0,0,1,4.315.029a.171.171,0,0,1,.242.053L5.4,1.435a5.429,5.429,0,0,1,4.194,0L10.445.082A.171.171,0,0,1,10.591,0a.169.169,0,0,1,.095.029.184.184,0,0,1,.051.249L9.919,1.586A4.706,4.706,0,0,1,11.707,3.15a3.982,3.982,0,0,1,.682,2.216c0,.094,0,.19-.014.295ZM9.76,2.957a.485.485,0,1,0,.469.485A.478.478,0,0,0,9.76,2.957Zm-4.52,0a.485.485,0,1,0,.47.485A.478.478,0,0,0,5.24,2.957Z" transform="translate(13.393 11.787)" fill="#fff"/>
  </g>
</svg>
