<svg id="twotone-closed_caption-24px" xmlns="http://www.w3.org/2000/svg" width="35.539" height="35.539" viewBox="0 0 35.539 35.539">
  <path id="Path_5090" data-name="Path 5090" d="M0,0H35.539V35.539H0Z" fill="none"/>
  <path id="Path_5091" data-name="Path 5091" d="M26.674,20.568H9.644a5.923,5.923,0,0,1,0-11.846h18.51a3.7,3.7,0,1,1,0,7.4H12.606a1.481,1.481,0,1,1,0-2.962H26.674V10.942H12.606a3.7,3.7,0,0,0,0,7.4H28.154a5.923,5.923,0,0,0,0-11.846H9.644a8.144,8.144,0,0,0,0,16.289H26.674Z" transform="translate(0.721 3.125)" fill="#6236ff"/>
</svg>
