<svg id="Bitcoin" xmlns="http://www.w3.org/2000/svg" width="34.796" height="34.261" viewBox="0 0 34.796 34.261">
  <g id="Group">
    <ellipse id="Combined_Shape" data-name="Combined Shape" cx="17.398" cy="17.13" rx="17.398" ry="17.13" fill="#f89b2b"/>
    <path id="Combined_Shape-2" data-name="Combined Shape" d="M8.373,21.582a.6.6,0,0,1-.195-.054c-.247-.054-.512-.123-.769-.189s-.521-.135-.769-.189c-.08-.026-.123-.053-.137-.087a.162.162,0,0,1,.027-.129l0-.02c.215-.9.436-1.824.709-2.682a.467.467,0,0,1,.008-.079c.01-.059.016-.1-.063-.137-.4-.1-.861-.213-1.372-.324-.055.243-.125.49-.192.73s-.137.487-.192.73-.125.49-.192.73-.137.487-.192.73l-.017.036c-.028.058-.044.093-.1.093a.341.341,0,0,1-.1-.021c-.545-.161-1.1-.27-1.635-.376l-.012,0c-.08-.026-.123-.053-.137-.087a.162.162,0,0,1,.027-.129l0-.02c.215-.9.436-1.824.709-2.682a.192.192,0,0,1,.02-.071.35.35,0,0,0,.034-.145c-1.091-.28-2.448-.63-3.842-.973.054-.107.1-.2.136-.295s.083-.191.138-.3c.216-.478.439-.973.6-1.405.055-.162.11-.162.274-.162a9.529,9.529,0,0,0,1.208.27.919.919,0,0,0,.219.028.575.575,0,0,0,.6-.514c.7-2.7,1.424-5.5,2.086-8.322A.932.932,0,0,0,4.61,4.451c-.4-.131-.788-.224-1.165-.315l-.262-.063a.134.134,0,0,1-.12-.046.117.117,0,0,1,.01-.116c.083-.3.168-.62.25-.928.068-.255.137-.517.206-.768.261.067.525.126.781.183.3.066.6.135.905.216s.609.15.905.216.6.135.905.216a.345.345,0,0,0,.1.02c.09,0,.131-.067.17-.182.109-.458.221-.911.328-1.348v0c.108-.439.22-.892.329-1.351C8,.067,8.037,0,8.128,0a.345.345,0,0,1,.1.02C8.779.182,9.264.288,9.824.4c.08.027.123.054.137.087a.162.162,0,0,1-.027.129c-.109.432-.22.882-.328,1.318s-.221.9-.331,1.33a.406.406,0,0,1-.055.216c.219.054.455.108.683.161s.469.109.689.163c.037,0,.074-.049.11-.1a.643.643,0,0,1,.055-.066c.145-.619.312-1.3.549-2.053l.158-.623.006-.025c0-.084.031-.13.088-.13a.179.179,0,0,1,.077.021c.313.093.623.167.951.245.242.058.492.118.751.187a.072.072,0,0,1,.055.027.072.072,0,0,0,.055.027c-.17.727-.342,1.4-.494,2a4.465,4.465,0,0,1-.219.811.193.193,0,0,0,0,.176A.3.3,0,0,0,12.9,4.4L13.8,4.8l.906.405a4.613,4.613,0,0,1,1.427,1.3,3.2,3.2,0,0,1,.329,2.54,3.368,3.368,0,0,1-.823,1.567,3.332,3.332,0,0,1-1.208.7.2.2,0,0,0-.072.02.365.365,0,0,1-.147.034c.11.081.221.15.329.216s.22.135.33.216a3.414,3.414,0,0,1,1.317,1.837,4.141,4.141,0,0,1-.11,1.837,5.233,5.233,0,0,1-.988,2,3.429,3.429,0,0,1-2.25,1.189,8.452,8.452,0,0,1-1.188.08,14.816,14.816,0,0,1-2.16-.188.367.367,0,0,0-.113-.02.225.225,0,0,0-.216.182c-.11.431-.221.883-.329,1.32v.007c-.108.437-.219.89-.329,1.321l-.007.027C8.468,21.519,8.453,21.582,8.373,21.582ZM7.313,11.456c-.064,0-.079.048-.11.142v0l-.012.038c-.055.269-.124.529-.192.781s-.138.515-.193.786c-.126.433-.232.858-.344,1.308-.082.329-.166.668-.26,1.016a.2.2,0,0,1,.11.054l.421.106a12.532,12.532,0,0,0,2.323.435c.251.021.455.03.642.03a3.53,3.53,0,0,0,1.224-.193,1.714,1.714,0,0,0,.878-2.54,3.353,3.353,0,0,0-1.148-.97l0,0A10.839,10.839,0,0,0,7.511,11.5l-.1-.02A.325.325,0,0,0,7.313,11.456Zm1.418-5.62c-.091,0-.131.067-.17.182-.328,1.359-.591,2.361-.878,3.35a.137.137,0,0,0-.017.108c.013.039.051.071.126.108.11.027.207.055.3.081s.192.054.3.081c.226.03.446.064.659.1a10.968,10.968,0,0,0,1.756.173,3.637,3.637,0,0,0,.6-.108,1.586,1.586,0,0,0,1.121-.9,1.521,1.521,0,0,0-.078-1.42A2.564,2.564,0,0,0,11.2,6.559,12.7,12.7,0,0,0,9.319,5.98C9.162,5.94,9,5.9,8.836,5.856A.343.343,0,0,0,8.732,5.836Z" transform="translate(8.727 6.194)" fill="#fff"/>
  </g>
</svg>
