<svg id="Bitcoin" xmlns="http://www.w3.org/2000/svg" width="62.823" height="62.823" viewBox="0 0 62.823 62.823">
  <g id="Group">
    <circle id="Combined_Shape" data-name="Combined Shape" cx="31.411" cy="31.411" r="31.411" fill="#f89b2b"/>
    <path id="Combined_Shape-2" data-name="Combined Shape" d="M15.117,39.574a1.069,1.069,0,0,1-.352-.1c-.446-.1-.925-.225-1.388-.347s-.942-.248-1.388-.347c-.145-.048-.221-.1-.247-.159a.3.3,0,0,1,.049-.237l.009-.036c.387-1.644.788-3.344,1.28-4.919a.869.869,0,0,1,.014-.145c.018-.109.029-.18-.113-.251-.728-.183-1.554-.39-2.477-.595-.1.446-.225.9-.347,1.338s-.248.892-.347,1.338-.225.9-.347,1.338-.248.892-.347,1.338l-.031.065c-.05.107-.08.171-.182.171a.607.607,0,0,1-.182-.039c-.984-.295-1.984-.5-2.952-.69l-.021,0c-.145-.048-.221-.1-.247-.159a.3.3,0,0,1,.049-.237l.009-.036c.387-1.644.788-3.344,1.28-4.919a.356.356,0,0,1,.037-.13.651.651,0,0,0,.062-.266C4.967,31.034,2.516,30.393,0,29.764c.1-.2.173-.372.246-.541s.15-.35.25-.549c.389-.877.792-1.784,1.09-2.576.1-.3.2-.3.495-.3a16.978,16.978,0,0,0,2.18.495,1.635,1.635,0,0,0,.395.051A1.043,1.043,0,0,0,5.747,25.4c1.264-4.956,2.57-10.08,3.766-15.26a1.712,1.712,0,0,0-1.19-1.982c-.718-.24-1.422-.412-2.1-.578l-.473-.116a.241.241,0,0,1-.217-.084.218.218,0,0,1,.019-.213c.15-.551.3-1.136.451-1.7.122-.468.247-.947.371-1.409.471.123.948.231,1.409.336.536.122,1.089.248,1.634.4s1.1.275,1.635.4,1.09.248,1.635.4a.614.614,0,0,0,.189.037c.163,0,.236-.122.307-.334.2-.84.4-1.67.593-2.472V2.812c.2-.8.4-1.636.594-2.477.071-.212.143-.334.307-.334a.614.614,0,0,1,.189.037c.987.3,1.862.491,2.873.693.145.049.221.1.247.16a.3.3,0,0,1-.049.237c-.2.791-.4,1.618-.592,2.416s-.4,1.644-.6,2.439a.753.753,0,0,1-.1.4c.395.1.821.2,1.233.3s.847.2,1.244.3c.067,0,.134-.09.2-.177a1.175,1.175,0,0,1,.1-.12c.262-1.136.563-2.379.991-3.765L20.7,1.768l.012-.046c0-.153.057-.238.16-.238a.319.319,0,0,1,.138.039c.566.17,1.125.306,1.716.45.437.106.888.216,1.355.343a.129.129,0,0,1,.1.049.129.129,0,0,0,.1.049c-.307,1.334-.618,2.573-.892,3.666a8.289,8.289,0,0,1-.4,1.487.359.359,0,0,0,0,.322.539.539,0,0,0,.3.174l1.635.743,1.635.743a8.376,8.376,0,0,1,2.576,2.378,5.946,5.946,0,0,1,.594,4.657,6.209,6.209,0,0,1-1.486,2.873,6,6,0,0,1-2.18,1.289.356.356,0,0,0-.13.037.651.651,0,0,1-.266.062c.2.148.4.274.594.4s.4.248.595.4a6.258,6.258,0,0,1,2.378,3.369,7.707,7.707,0,0,1-.2,3.368,9.654,9.654,0,0,1-1.784,3.667,6.162,6.162,0,0,1-4.063,2.18,15.028,15.028,0,0,1-2.144.147,26.348,26.348,0,0,1-3.9-.345.653.653,0,0,0-.2-.037c-.185,0-.316.112-.39.334-.2.79-.4,1.619-.593,2.421l0,.007v.005c-.194.8-.4,1.632-.594,2.423l-.012.049C15.289,39.458,15.261,39.574,15.117,39.574ZM13.2,21.007c-.115,0-.143.087-.2.261l0,.006-.022.069c-.1.494-.225.97-.346,1.432s-.249.945-.348,1.442c-.227.793-.418,1.573-.62,2.4-.148.6-.3,1.226-.47,1.862a.35.35,0,0,1,.2.1c.251.063.5.128.76.194a22.315,22.315,0,0,0,4.194.8c.453.038.821.055,1.159.055a6.284,6.284,0,0,0,2.21-.353,2.979,2.979,0,0,0,1.9-1.925,3.071,3.071,0,0,0-.311-2.732,6.079,6.079,0,0,0-2.073-1.779l-.007,0a19.348,19.348,0,0,0-5.663-1.747l-.184-.037A.579.579,0,0,0,13.2,21.007Zm2.561-10.3c-.164,0-.236.123-.307.334-.593,2.491-1.067,4.329-1.585,6.144a.255.255,0,0,0-.03.2c.023.071.092.13.228.2.2.049.374.1.545.149s.347.1.545.149c.408.054.806.117,1.19.177a19.507,19.507,0,0,0,3.17.318,6.475,6.475,0,0,0,1.09-.2,2.873,2.873,0,0,0,2.023-1.657,2.827,2.827,0,0,0-.141-2.6,4.646,4.646,0,0,0-2.279-1.883,22.661,22.661,0,0,0-3.39-1.061c-.283-.073-.577-.148-.871-.226A.611.611,0,0,0,15.765,10.7Z" transform="translate(15.755 11.358)" fill="#fff"/>
  </g>
</svg>
