<svg xmlns="http://www.w3.org/2000/svg" width="34.257" height="34.257" viewBox="0 0 34.257 34.257">
  <path id="Combined_Shape" data-name="Combined Shape" d="M17.128,34.257A17.133,17.133,0,0,1,10.461,1.346,17.133,17.133,0,0,1,23.8,32.911,17.017,17.017,0,0,1,17.128,34.257Zm-2.81-10.374h0c.473.105.9.211,1.306.313l.045.011c.078.039.071.078.062.137v.007a.466.466,0,0,0-.007.072c-.272.872-.491,1.8-.7,2.7a.164.164,0,0,0-.027.129c.014.034.056.061.135.087.252.056.532.13.757.189.274.073.521.137.756.189a.583.583,0,0,0,.192.054c.079,0,.094-.063.126-.188l.007-.027c.095-.378.191-.773.283-1.155l.041-.167h0v0c.1-.414.214-.884.324-1.323.04-.121.112-.182.213-.182a.352.352,0,0,1,.111.02,14.4,14.4,0,0,0,2.127.188,8.189,8.189,0,0,0,1.17-.08,3.359,3.359,0,0,0,2.215-1.189,5.254,5.254,0,0,0,.973-2,4.2,4.2,0,0,0,.108-1.837,3.407,3.407,0,0,0-1.3-1.837c-.106-.079-.214-.147-.324-.216L22.9,17.77c-.1-.064-.209-.131-.313-.209h0a.338.338,0,0,0,.14-.033.2.2,0,0,1,.071-.02,3.269,3.269,0,0,0,1.189-.7,3.389,3.389,0,0,0,.811-1.567,3.244,3.244,0,0,0-.324-2.539,4.559,4.559,0,0,0-1.4-1.3l-.853-.388L22.181,11l-.446-.2-.019-.008-.427-.194a.3.3,0,0,1-.161-.092.194.194,0,0,1,0-.178,4.434,4.434,0,0,0,.215-.8V9.511l.02-.082c.144-.575.307-1.227.466-1.919a.07.07,0,0,1-.054-.027.069.069,0,0,0-.054-.027c-.238-.065-.469-.121-.691-.175l-.047-.011c-.305-.074-.621-.15-.938-.246A.173.173,0,0,0,19.971,7c-.055,0-.087.047-.087.13l-.081.324-.081.324c-.231.749-.4,1.43-.541,2.053a.6.6,0,0,0-.054.066c-.035.047-.072.1-.108.1-.228-.057-.483-.117-.688-.165s-.445-.1-.663-.159a.411.411,0,0,0,.054-.216c.107-.43.215-.873.325-1.328.1-.41.212-.874.323-1.319a.164.164,0,0,0,.027-.129c-.014-.034-.056-.061-.135-.087-.551-.11-1.029-.217-1.567-.378a.335.335,0,0,0-.1-.02c-.089,0-.128.067-.167.182-.108.456-.219.916-.323,1.348v0l-.024.1c-.1.406-.2.827-.3,1.252-.039.116-.078.182-.167.182a.335.335,0,0,1-.1-.02c-.3-.082-.6-.15-.892-.216l-.03-.007c-.282-.064-.574-.131-.861-.209s-.6-.15-.889-.215c-.238-.054-.507-.115-.769-.184l.025-.093.006-.021.007-.026-.052.039-.024.018-.073.055.111.03c-.066.244-.131.494-.2.773-.078.3-.162.621-.245.923a.118.118,0,0,0-.01.116.131.131,0,0,0,.118.046l.051.013.2.05.01,0c.37.09.753.184,1.142.314a.932.932,0,0,1,.648,1.081c-.66,2.859-1.368,5.636-2.053,8.321a.569.569,0,0,1-.6.515.891.891,0,0,1-.215-.028,9.258,9.258,0,0,1-1.189-.27H9.721c-.153,0-.211,0-.265.162-.166.444-.394.954-.594,1.4-.053.106-.094.2-.135.3s-.081.189-.135.3c1.261.315,2.459.627,3.782.973a.357.357,0,0,1-.032.141v0a.19.19,0,0,0-.02.071c-.272.872-.491,1.8-.7,2.7a.164.164,0,0,0-.027.129c.014.034.056.061.135.088.53.106,1.079.215,1.621.378a.333.333,0,0,0,.1.021c.056,0,.073-.037.1-.093l.018-.036c.053-.239.12-.483.19-.733l.009-.032c.063-.227.128-.463.179-.694s.12-.48.185-.715l0-.015c.063-.225.134-.48.189-.729Zm3.821-1.537c-.186,0-.387-.01-.632-.03a12.179,12.179,0,0,1-2.288-.435l-.413-.105a.19.19,0,0,0-.108-.054c.094-.351.178-.694.259-1.026.109-.447.213-.869.335-1.3.054-.269.122-.529.189-.781s.136-.515.19-.786l.013-.04c.031-.1.046-.143.109-.143a.318.318,0,0,1,.095.02l.1.02a10.551,10.551,0,0,1,3.088.953h0a3.317,3.317,0,0,1,1.133.971,1.675,1.675,0,0,1,.17,1.489,1.626,1.626,0,0,1-1.034,1.051A3.436,3.436,0,0,1,18.139,22.346Zm1.1-6.136a10.641,10.641,0,0,1-1.729-.173c-.21-.033-.426-.067-.648-.1-.11-.027-.208-.055-.3-.082s-.187-.053-.293-.08a.266.266,0,0,1-.115-.088.126.126,0,0,1,.007-.128c.351-1.227.634-2.382.865-3.35.038-.115.078-.182.167-.182a.335.335,0,0,1,.1.02c.16.043.319.084.474.123a12.407,12.407,0,0,1,1.849.579,2.537,2.537,0,0,1,1.243,1.027,1.542,1.542,0,0,1,.077,1.42,1.567,1.567,0,0,1-1.1.9A3.55,3.55,0,0,1,19.236,16.21Z" fill="#4bcf51"/>
</svg>
