<svg xmlns="http://www.w3.org/2000/svg" width="61.849" height="61.849" viewBox="0 0 61.849 61.849">
  <path id="Combined_Shape" data-name="Combined Shape" d="M30.924,61.849A30.933,30.933,0,0,1,18.887,2.43,30.933,30.933,0,0,1,42.961,59.419,30.742,30.742,0,0,1,30.924,61.849Zm-5.072-18.73h0c.847.188,1.614.379,2.356.565l.082.02c.14.07.129.14.112.247l0,.012a.826.826,0,0,0-.013.13c-.489,1.569-.884,3.245-1.265,4.866l0,.013c-.049.1-.073.171-.048.232s.1.11.243.158c.428.095.887.215,1.331.332l.034.009.053.014c.439.115.891.234,1.313.328a1.049,1.049,0,0,0,.347.1c.143,0,.171-.114.227-.342l.013-.048c.186-.746.376-1.528.559-2.284l.025-.1,0-.005h0c.146-.6.365-1.507.584-2.389a.4.4,0,0,1,.384-.328.642.642,0,0,1,.2.036,25.813,25.813,0,0,0,3.839.339,14.825,14.825,0,0,0,2.111-.144,6.061,6.061,0,0,0,4-2.146,9.489,9.489,0,0,0,1.756-3.61,7.566,7.566,0,0,0,.2-3.317,6.153,6.153,0,0,0-2.341-3.316c-.2-.149-.4-.277-.585-.39s-.389-.243-.586-.391l.009,0a.625.625,0,0,0,.251-.058.348.348,0,0,1,.13-.038,5.914,5.914,0,0,0,2.146-1.267,6.1,6.1,0,0,0,1.463-2.83,5.856,5.856,0,0,0-.585-4.585,8.226,8.226,0,0,0-2.537-2.341l-.884-.4-.029-.013-.628-.286-.068-.031-1.609-.732a.488.488,0,0,1-.306-.192.387.387,0,0,1,.012-.3,8.112,8.112,0,0,0,.388-1.449l0-.011.037-.148.017-.068c.27-1.084.549-2.2.825-3.4a.126.126,0,0,1-.1-.049.127.127,0,0,0-.1-.049c-.463-.126-.9-.234-1.332-.338-.552-.134-1.123-.272-1.692-.443a.307.307,0,0,0-.136-.039c-.1,0-.157.085-.157.234l-.147.585-.146.586c-.42,1.36-.717,2.585-.977,3.706a1.108,1.108,0,0,0-.095.117c-.062.083-.132.177-.2.177-.39-.1-.81-.2-1.242-.3l-.051-.012c-.384-.091-.779-.184-1.146-.276a.736.736,0,0,0,.1-.391c.182-.727.366-1.489.545-2.225l.042-.173.04-.164c.178-.735.363-1.493.544-2.217a.294.294,0,0,0,.048-.233c-.025-.061-.1-.11-.243-.158-1-.2-1.862-.392-2.83-.683a.606.606,0,0,0-.185-.036c-.161,0-.232.12-.3.328-.18.761-.361,1.512-.537,2.239l-.047.194,0,.005c-.208.858-.4,1.634-.586,2.439-.069.209-.141.329-.3.329A.584.584,0,0,1,28,16.681c-.55-.149-1.113-.277-1.609-.39l-.034-.008c-.516-.118-1.05-.24-1.575-.383-.545-.148-1.109-.277-1.606-.39-.429-.1-.915-.208-1.389-.331l.024-.091.031-.116.013-.048L21.757,15l-.059.044-.115.086.115.03.086.023c-.12.446-.238.9-.368,1.4-.157.6-.3,1.147-.441,1.668a.215.215,0,0,0-.019.21.237.237,0,0,0,.213.083l.325.079.008,0,.124.03c.672.164,1.367.333,2.081.571a1.682,1.682,0,0,1,1.17,1.95c-1.182,5.125-2.466,10.157-3.707,15.022a1.028,1.028,0,0,1-1.075.929,1.61,1.61,0,0,1-.389-.05,16.625,16.625,0,0,1-2.146-.487h-.01c-.276,0-.38,0-.479.292-.3.8-.692,1.68-1.073,2.535-.1.2-.174.373-.243.537s-.147.341-.244.536c2.265.567,4.432,1.131,6.828,1.756a.64.64,0,0,1-.06.26.352.352,0,0,0-.038.131c-.493,1.579-.887,3.256-1.267,4.877a.3.3,0,0,0-.049.233c.025.061.1.11.243.157.956.191,1.944.388,2.927.682a.6.6,0,0,0,.18.039c.1,0,.131-.063.179-.168l.014-.03.017-.035c.1-.448.229-.913.343-1.323l0-.015c.118-.425.239-.864.336-1.3s.215-.86.331-1.279l.01-.038c.113-.406.24-.865.341-1.316Zm6.9-2.775h0c-.336,0-.7-.017-1.144-.055a22,22,0,0,1-4.142-.788c-.247-.064-.492-.127-.735-.188a.346.346,0,0,0-.2-.1c.169-.633.321-1.253.468-1.852.2-.808.384-1.568.605-2.343.1-.488.222-.959.342-1.414s.244-.926.342-1.414l.024-.073c.055-.171.082-.256.2-.256a.572.572,0,0,1,.171.037l.167.033a19.064,19.064,0,0,1,5.589,1.723,5.993,5.993,0,0,1,2.048,1.756,3.023,3.023,0,0,1,.307,2.689A2.933,2.933,0,0,1,34.924,40,6.19,6.19,0,0,1,32.751,40.344Zm1.978-11.078a19.191,19.191,0,0,1-3.122-.313c-.378-.059-.768-.121-1.17-.175-.2-.049-.369-.1-.537-.146s-.342-.1-.537-.146c-.2-.1-.292-.2-.194-.391.638-2.235,1.147-4.311,1.561-6.048.069-.209.141-.329.3-.329a.6.6,0,0,1,.186.037c.288.077.575.15.852.221a22.318,22.318,0,0,1,3.343,1.047,4.572,4.572,0,0,1,2.244,1.853,2.783,2.783,0,0,1,.139,2.563A2.829,2.829,0,0,1,35.8,29.071,6.343,6.343,0,0,1,34.729,29.266Z" transform="translate(0 0)" fill="#4bcf51"/>
</svg>
