<svg id="coin" xmlns="http://www.w3.org/2000/svg" width="23.791" height="21.411" viewBox="0 0 23.791 21.411">
  <path id="Path" d="M19.932,0V2.644c0,.579-.431,1.124-1.2,1.6-.109.066-.224.135-.351.2a0,0,0,0,0,0,0c-.109.059-.224.115-.347.174a10.585,10.585,0,0,1-1.4.524l-.351.1h0l-.347.094c-.442.111-.908.212-1.4.295-.116.021-.231.042-.351.059h0c-.116.017-.228.038-.347.052-.452.066-.919.118-1.4.16-.116.01-.232.021-.351.028h0c-.116.01-.228.017-.347.024-.456.028-.926.045-1.4.049-.116,0-.231,0-.351,0h0c-.119,0-.231,0-.347,0-.477,0-.947-.021-1.4-.049-.119-.007-.235-.014-.351-.024h0c-.119-.007-.231-.017-.347-.028-.484-.042-.95-.094-1.4-.16-.119-.014-.235-.035-.351-.052h0c-.119-.017-.231-.038-.347-.059-.495-.083-.961-.184-1.4-.295-.119-.031-.238-.062-.351-.094h0c-.119-.035-.231-.069-.347-.1a10.585,10.585,0,0,1-1.4-.524c-.123-.055-.238-.114-.351-.177a0,0,0,0,1,0,0A3.306,3.306,0,0,1,1.2,4.247C.435,3.772,0,3.223,0,2.644V0Z" transform="translate(0 15.398)" fill="#f6c358"/>
  <path id="Path-2" data-name="Path" d="M19.932,3.369c0,.579-.431,1.124-1.2,1.6a3.5,3.5,0,0,1-.354.2c-.109.062-.224.118-.347.177a11.093,11.093,0,0,1-1.4.524l-.351.1h0q-.168.047-.347.094c-.442.111-.908.212-1.4.295-.116.021-.231.042-.351.059h0c-.116.017-.228.038-.347.052-.452.066-.919.118-1.4.16-.116.01-.232.021-.351.028h0c-.116.01-.228.017-.347.024-.456.028-.926.045-1.4.049-.116,0-.231,0-.351,0h0c-.119,0-.231,0-.347,0-.477,0-.947-.021-1.4-.049-.119-.007-.235-.014-.351-.024h0c-.119-.007-.231-.017-.347-.028-.484-.042-.95-.094-1.4-.16-.119-.014-.235-.035-.351-.052h0c-.119-.017-.231-.038-.347-.059-.495-.083-.961-.184-1.4-.295-.119-.031-.238-.062-.351-.094h0c-.119-.035-.231-.069-.347-.1a10.592,10.592,0,0,1-1.4-.524c-.123-.056-.238-.114-.351-.177a0,0,0,0,1,0,0A3.334,3.334,0,0,1,1.2,4.972C.435,4.5,0,3.949,0,3.369,0,1.509,4.465,0,9.968,0S19.932,1.509,19.932,3.369Z" transform="translate(0 12.029)" fill="#fcd462"/>
  <path id="Path-3" data-name="Path" d="M8.985,4.855c-.1,0-.194,0-.291,0-.459,0-.914-.019-1.374-.047C7.209,4.8,7.1,4.792,7,4.783l-.042,0H6.938c-.094-.006-.183-.014-.275-.023C6.157,4.713,5.717,4.663,5.3,4.6c-.1-.012-.164-.023-.231-.033l-.189-.029c-.07-.011-.25-.044-.25-.044-.452-.076-.887-.167-1.34-.281-.1-.028-.219-.057-.327-.088l-.333-.1a10.113,10.113,0,0,1-1.081-.389v0l-.528-.255L.848,3.287H.841L.764,3.24C.2,2.887,0,2.583,0,2.428,0,1.572,3.423,0,9.016,0s9.012,1.572,9.012,2.428c0,.155-.2.457-.748.8A2.748,2.748,0,0,1,17,3.386l-.052.028c-.087.05-.179.093-.277.14A10.2,10.2,0,0,1,15.4,4.03l-.329.1-.333.09c-.443.111-.877.2-1.319.277-.094.017-.181.032-.268.046l-.193.029c-.063.01-.126.021-.192.028-.449.065-.889.115-1.375.157-.1.009-.2.018-.3.024l-.059,0c-.106.009-.209.016-.318.022-.463.028-.918.044-1.354.047-.119,0-.218,0-.319,0Z" transform="translate(0.952 12.971)" fill="#f6c358"/>
  <g id="Group" transform="translate(1.199 16.994)">
    <path id="Path-4" data-name="Path" d="M.7.375V3.019C.579,2.963.463,2.9.351,2.842a0,0,0,0,1,0,0A3.306,3.306,0,0,1,0,2.644V0A3.325,3.325,0,0,0,.347.194a0,0,0,0,0,0,0C.463.26.579.319.7.375Z" transform="translate(0 0.007)" fill="#dc8744"/>
    <path id="Path-5" data-name="Path" d="M.7.2V2.842C.582,2.81.463,2.779.351,2.748h0C.228,2.713.116,2.679,0,2.644V0C.116.035.228.069.347.1h0C.463.135.582.167.7.2Z" transform="translate(2.104 0.906)" fill="#dc8744"/>
    <path id="Path-6" data-name="Path" d="M.7.111V2.755C.582,2.741.466,2.72.351,2.7h0C.228,2.686.116,2.665,0,2.644V0C.116.021.228.042.347.059h0C.466.076.582.1.7.111Z" transform="translate(4.209 1.398)" fill="#dc8744"/>
    <path id="Path-7" data-name="Path" d="M.7.052V2.7C.582,2.689.466,2.682.351,2.672h0C.228,2.665.116,2.654,0,2.644V0C.116.01.228.021.347.028h0C.466.038.582.045.7.052Z" transform="translate(6.313 1.669)" fill="#dc8744"/>
    <path id="Path-8" data-name="Path" d="M.7,0V2.644c-.116,0-.231,0-.351,0h0c-.119,0-.231,0-.347,0V0C.116,0,.228,0,.347,0h0C.47,0,.586,0,.7,0Z" transform="translate(8.417 1.77)" fill="#dc8744"/>
    <path id="Path-9" data-name="Path" d="M.7,0V2.644c-.116.01-.232.021-.351.028h0C.231,2.682.119,2.689,0,2.7V.052C.119.045.231.038.347.028h0C.47.021.586.01.7,0Z" transform="translate(10.522 1.669)" fill="#dc8744"/>
    <path id="Path-10" data-name="Path" d="M.7,0V2.644C.586,2.665.47,2.686.351,2.7h0C.231,2.72.119,2.741,0,2.755V.111C.119.1.231.076.347.059h0C.47.042.586.021.7,0Z" transform="translate(12.626 1.398)" fill="#dc8744"/>
    <path id="Path-11" data-name="Path" d="M.7,0V2.644l-.351.1h0L0,2.842V.2Q.179.151.347.1h0Z" transform="translate(14.73 0.906)" fill="#dc8744"/>
    <path id="Path-12" data-name="Path" d="M.7,0V2.651c-.109.066-.224.135-.351.2a0,0,0,0,0,0,0c-.109.059-.224.115-.347.173V.382C.123.323.238.267.347.2A3.5,3.5,0,0,0,.7,0Z" transform="translate(16.835)" fill="#dc8744"/>
  </g>
  <path id="Path-13" data-name="Path" d="M19.931,0V2.644c0,.579-.431,1.124-1.2,1.6-.109.066-.224.135-.351.2a0,0,0,0,0,0,0c-.109.059-.224.115-.347.174a10.584,10.584,0,0,1-1.4.524l-.351.1h0l-.347.094c-.442.111-.908.212-1.4.295-.116.021-.231.042-.351.059h0c-.116.017-.228.038-.347.052-.452.066-.919.118-1.4.16-.116.01-.231.021-.351.028h0c-.116.01-.228.017-.347.024-.456.028-.926.045-1.4.049-.116,0-.231,0-.351,0h0c-.119,0-.231,0-.347,0-.477,0-.947-.021-1.4-.049-.119-.007-.235-.014-.351-.024h0c-.119-.007-.231-.017-.347-.028-.484-.042-.95-.094-1.4-.16-.119-.014-.235-.035-.351-.052h0c-.119-.017-.231-.038-.347-.059-.495-.083-.961-.184-1.4-.295-.119-.031-.238-.062-.351-.094h0c-.119-.035-.231-.069-.347-.1a10.585,10.585,0,0,1-1.4-.524c-.123-.055-.238-.114-.351-.177a0,0,0,0,1,0,0A3.306,3.306,0,0,1,1.2,4.247C.435,3.772,0,3.223,0,2.644V0H19.931Z" transform="translate(3.86 11.389)" fill="#f6c358"/>
  <path id="Path-14" data-name="Path" d="M19.931,3.369c0,.579-.431,1.124-1.2,1.6a3.5,3.5,0,0,1-.354.2c-.109.062-.224.118-.347.177a11.093,11.093,0,0,1-1.4.524l-.351.1h0q-.168.047-.347.094c-.442.111-.908.212-1.4.295-.116.021-.231.042-.351.059h0c-.116.017-.228.038-.347.052-.452.066-.919.118-1.4.16-.116.01-.231.021-.351.028h0c-.116.01-.228.017-.347.024-.456.028-.926.045-1.4.049-.116,0-.231,0-.351,0h0c-.119,0-.231,0-.347,0-.477,0-.947-.021-1.4-.049-.119-.007-.235-.014-.351-.024h0c-.119-.007-.231-.017-.347-.028-.484-.042-.95-.094-1.4-.16-.119-.014-.235-.035-.351-.052h0c-.119-.017-.231-.038-.347-.059-.495-.083-.961-.184-1.4-.295-.119-.031-.238-.062-.351-.094h0c-.119-.035-.231-.069-.347-.1a10.592,10.592,0,0,1-1.4-.524c-.123-.056-.238-.114-.351-.177a0,0,0,0,1,0,0A3.334,3.334,0,0,1,1.2,4.972C.435,4.5,0,3.949,0,3.369,0,1.509,4.465,0,9.968,0S19.931,1.509,19.931,3.369Z" transform="translate(3.86 8.02)" fill="#fcd462"/>
  <path id="Path-15" data-name="Path" d="M8.985,4.855c-.1,0-.193,0-.29,0-.462,0-.916-.019-1.373-.047C7.209,4.8,7.1,4.792,7,4.783l-.043,0H6.937c-.09-.006-.176-.014-.264-.021C6.155,4.713,5.715,4.663,5.3,4.6c-.1-.012-.164-.023-.231-.033l-.189-.029c-.073-.012-.25-.044-.25-.044-.454-.077-.888-.168-1.339-.281-.105-.028-.219-.057-.327-.088l-.333-.1a10.1,10.1,0,0,1-1.082-.389v0l-.531-.255L.848,3.287H.841L.763,3.239C.2,2.888,0,2.583,0,2.428,0,1.572,3.423,0,9.016,0s9.012,1.572,9.012,2.428c0,.155-.2.456-.748.8A2.8,2.8,0,0,1,17,3.387l-.051.027c-.087.05-.18.093-.277.14A10.15,10.15,0,0,1,15.4,4.03l-.33.1-.333.09c-.441.111-.875.2-1.319.277-.093.017-.18.032-.267.046l-.194.03c-.063.01-.126.021-.191.028-.447.065-.887.115-1.375.157-.1.009-.2.018-.3.024l-.061,0c-.105.009-.208.016-.316.022-.46.028-.915.044-1.354.047-.119,0-.218,0-.319,0Z" transform="translate(4.811 8.961)" fill="#f6c358"/>
  <g id="Group-2" data-name="Group" transform="translate(5.059 12.985)">
    <path id="Path-16" data-name="Path" d="M.7.375V3.019C.579,2.963.463,2.9.351,2.842a0,0,0,0,1,0,0A3.306,3.306,0,0,1,0,2.644V0A3.325,3.325,0,0,0,.347.194a0,0,0,0,0,0,0C.463.26.579.319.7.375Z" transform="translate(0 0.007)" fill="#dc8744"/>
    <path id="Path-17" data-name="Path" d="M.7.2V2.842C.582,2.81.463,2.779.351,2.748h0C.228,2.713.116,2.679,0,2.644V0C.116.035.228.069.347.1h0C.463.135.582.167.7.2Z" transform="translate(2.104 0.906)" fill="#dc8744"/>
    <path id="Path-18" data-name="Path" d="M.7.111V2.755C.582,2.741.466,2.72.351,2.7h0C.228,2.686.116,2.665,0,2.644V0C.116.021.228.042.347.059h0C.466.076.582.1.7.111Z" transform="translate(4.209 1.398)" fill="#dc8744"/>
    <path id="Path-19" data-name="Path" d="M.7.052V2.7C.582,2.689.466,2.682.351,2.672h0C.228,2.665.116,2.654,0,2.644V0C.116.01.228.021.347.028h0C.466.038.582.045.7.052Z" transform="translate(6.313 1.669)" fill="#dc8744"/>
    <path id="Path-20" data-name="Path" d="M.7,0V2.644c-.116,0-.231,0-.351,0h0c-.119,0-.231,0-.347,0V0C.116,0,.228,0,.347,0h0C.47,0,.586,0,.7,0Z" transform="translate(8.417 1.77)" fill="#dc8744"/>
    <path id="Path-21" data-name="Path" d="M.7,0V2.644c-.116.01-.231.021-.351.028h0C.231,2.682.119,2.689,0,2.7V.052C.119.045.231.038.347.028h0C.47.021.586.01.7,0Z" transform="translate(10.522 1.669)" fill="#dc8744"/>
    <path id="Path-22" data-name="Path" d="M.7,0V2.644C.586,2.665.47,2.686.351,2.7h0C.231,2.72.119,2.741,0,2.755V.111C.119.1.231.076.347.059h0C.47.042.586.021.7,0Z" transform="translate(12.626 1.398)" fill="#dc8744"/>
    <path id="Path-23" data-name="Path" d="M.7,0V2.644l-.351.1h0L0,2.842V.2Q.179.151.347.1h0Z" transform="translate(14.73 0.906)" fill="#dc8744"/>
    <path id="Path-24" data-name="Path" d="M.7,0V2.651c-.109.066-.224.135-.351.2a0,0,0,0,0,0,0c-.109.059-.224.115-.347.173V.382C.123.323.238.267.347.2A3.494,3.494,0,0,0,.7,0Z" transform="translate(16.835)" fill="#dc8744"/>
  </g>
  <path id="Path-25" data-name="Path" d="M19.932,0V2.644c0,.579-.431,1.124-1.2,1.6-.109.066-.224.135-.351.2a0,0,0,0,0,0,0c-.109.059-.224.115-.347.174a10.585,10.585,0,0,1-1.4.524l-.351.1h0l-.347.094c-.442.111-.908.212-1.4.295-.116.021-.231.042-.351.059h0c-.116.017-.228.038-.347.052-.452.066-.919.118-1.4.16-.116.01-.232.021-.351.028h0c-.116.01-.228.017-.347.024-.456.028-.926.045-1.4.049-.116,0-.231,0-.351,0h0c-.119,0-.231,0-.347,0-.477,0-.947-.021-1.4-.049-.119-.007-.235-.014-.351-.024h0c-.119-.007-.231-.017-.347-.028-.484-.042-.95-.094-1.4-.16-.119-.014-.235-.035-.351-.052h0c-.119-.017-.231-.038-.347-.059-.495-.083-.961-.184-1.4-.295-.119-.031-.238-.062-.351-.094h0c-.119-.035-.231-.069-.347-.1a10.585,10.585,0,0,1-1.4-.524c-.123-.055-.238-.114-.351-.177a0,0,0,0,1,0,0A3.306,3.306,0,0,1,1.2,4.247C.435,3.772,0,3.223,0,2.644V0H19.932Z" transform="translate(0 7.379)" fill="#f6c358"/>
  <path id="Path-26" data-name="Path" d="M19.932,3.369c0,.579-.431,1.124-1.2,1.6a3.5,3.5,0,0,1-.354.2c-.109.062-.224.118-.347.177a11.093,11.093,0,0,1-1.4.524l-.351.1h0q-.168.047-.347.094c-.442.111-.908.212-1.4.295-.116.021-.231.042-.351.059h0c-.116.017-.228.038-.347.052-.452.066-.919.118-1.4.16-.116.01-.232.021-.351.028h0c-.116.01-.228.017-.347.024-.456.028-.926.045-1.4.049-.116,0-.231,0-.351,0h0c-.119,0-.231,0-.347,0-.477,0-.947-.021-1.4-.049-.119-.007-.235-.014-.351-.024h0c-.119-.007-.231-.017-.347-.028-.484-.042-.95-.094-1.4-.16-.119-.014-.235-.035-.351-.052h0c-.119-.017-.231-.038-.347-.059-.495-.083-.961-.184-1.4-.295-.119-.031-.238-.062-.351-.094h0c-.119-.035-.231-.069-.347-.1a10.592,10.592,0,0,1-1.4-.524c-.123-.056-.238-.114-.351-.177a0,0,0,0,1,0,0A3.334,3.334,0,0,1,1.2,4.972C.435,4.5,0,3.949,0,3.369,0,1.509,4.465,0,9.968,0S19.932,1.509,19.932,3.369Z" transform="translate(0 4.01)" fill="#fcd462"/>
  <path id="Path-27" data-name="Path" d="M8.986,4.855c-.1,0-.195,0-.293,0-.46,0-.915-.019-1.372-.047C7.21,4.8,7.1,4.792,7,4.783l-.043,0H6.937c-.09-.006-.176-.014-.264-.021C6.155,4.713,5.715,4.663,5.3,4.6c-.1-.012-.162-.022-.228-.033L4.877,4.54c-.07-.011-.25-.044-.25-.044-.453-.076-.887-.167-1.339-.281-.106-.028-.22-.057-.327-.087l-.332-.1a10.1,10.1,0,0,1-1.082-.389v0L1.015,3.38.847,3.287H.841L.764,3.24C.2,2.887,0,2.583,0,2.428,0,1.572,3.423,0,9.016,0s9.012,1.572,9.012,2.428c0,.155-.2.456-.748.8A2.8,2.8,0,0,1,17,3.387l-.051.027c-.087.05-.18.093-.277.14A10.15,10.15,0,0,1,15.4,4.03l-.33.1q-.161.045-.332.089c-.444.112-.878.2-1.32.277-.1.017-.184.033-.273.047l-.189.029c-.062.01-.125.021-.19.028-.447.065-.887.115-1.375.157-.1.009-.2.018-.3.024l-.061,0c-.106.009-.209.016-.318.022-.459.028-.914.044-1.353.047-.118,0-.218,0-.319,0Z" transform="translate(0.952 4.951)" fill="#f6c358"/>
  <g id="Group-3" data-name="Group" transform="translate(1.199 8.975)">
    <path id="Path-28" data-name="Path" d="M.7.375V3.019C.579,2.963.463,2.9.351,2.842a0,0,0,0,1,0,0A3.306,3.306,0,0,1,0,2.644V0A3.325,3.325,0,0,0,.347.194a0,0,0,0,0,0,0C.463.26.579.319.7.375Z" transform="translate(0 0.007)" fill="#dc8744"/>
    <path id="Path-29" data-name="Path" d="M.7.2V2.842C.582,2.81.463,2.779.351,2.748h0C.228,2.713.116,2.679,0,2.644V0C.116.035.228.069.347.1h0C.463.135.582.167.7.2Z" transform="translate(2.104 0.906)" fill="#dc8744"/>
    <path id="Path-30" data-name="Path" d="M.7.111V2.755C.582,2.741.466,2.72.351,2.7h0C.228,2.686.116,2.665,0,2.644V0C.116.021.228.042.347.059h0C.466.076.582.1.7.111Z" transform="translate(4.209 1.398)" fill="#dc8744"/>
    <path id="Path-31" data-name="Path" d="M.7.052V2.7C.582,2.689.466,2.682.351,2.672h0C.228,2.665.116,2.654,0,2.644V0C.116.01.228.021.347.028h0C.466.038.582.045.7.052Z" transform="translate(6.313 1.669)" fill="#dc8744"/>
    <path id="Path-32" data-name="Path" d="M.7,0V2.644c-.116,0-.231,0-.351,0h0c-.119,0-.231,0-.347,0V0C.116,0,.228,0,.347,0h0C.47,0,.586,0,.7,0Z" transform="translate(8.417 1.77)" fill="#dc8744"/>
    <path id="Path-33" data-name="Path" d="M.7,0V2.644c-.116.01-.232.021-.351.028h0C.231,2.682.119,2.689,0,2.7V.052C.119.045.231.038.347.028h0C.47.021.586.01.7,0Z" transform="translate(10.522 1.669)" fill="#dc8744"/>
    <path id="Path-34" data-name="Path" d="M.7,0V2.644C.586,2.665.47,2.686.351,2.7h0C.231,2.72.119,2.741,0,2.755V.111C.119.1.231.076.347.059h0C.47.042.586.021.7,0Z" transform="translate(12.626 1.398)" fill="#dc8744"/>
    <path id="Path-35" data-name="Path" d="M.7,0V2.644l-.351.1h0L0,2.842V.2Q.179.151.347.1h0Z" transform="translate(14.73 0.906)" fill="#dc8744"/>
    <path id="Path-36" data-name="Path" d="M.7,0V2.651c-.109.066-.224.135-.351.2a0,0,0,0,0,0,0c-.109.059-.224.115-.347.173V.382C.123.323.238.267.347.2A3.494,3.494,0,0,0,.7,0Z" transform="translate(16.835)" fill="#dc8744"/>
  </g>
  <path id="Path-37" data-name="Path" d="M19.931,0V2.644c0,.579-.431,1.124-1.2,1.6-.109.066-.224.135-.351.2a0,0,0,0,0,0,0c-.109.059-.224.115-.347.174a10.584,10.584,0,0,1-1.4.524l-.351.1h0l-.347.094c-.442.111-.908.212-1.4.295-.116.021-.231.042-.351.059h0c-.116.017-.228.038-.347.052-.452.066-.919.118-1.4.16-.116.01-.231.021-.351.028h0c-.116.01-.228.017-.347.024-.456.028-.926.045-1.4.049-.116,0-.231,0-.351,0h0c-.119,0-.231,0-.347,0-.477,0-.947-.021-1.4-.049-.119-.007-.235-.014-.351-.024h0c-.119-.007-.231-.017-.347-.028-.484-.042-.95-.094-1.4-.16-.119-.014-.235-.035-.351-.052h0c-.119-.017-.231-.038-.347-.059-.495-.083-.961-.184-1.4-.295-.119-.031-.238-.062-.351-.094h0c-.119-.035-.231-.069-.347-.1a10.585,10.585,0,0,1-1.4-.524c-.123-.055-.238-.114-.351-.177a0,0,0,0,1,0,0A3.306,3.306,0,0,1,1.2,4.247C.435,3.772,0,3.223,0,2.644V0Z" transform="translate(3.86 3.369)" fill="#f6c358"/>
  <path id="Path-38" data-name="Path" d="M19.931,3.369c0,.579-.431,1.124-1.2,1.6a3.5,3.5,0,0,1-.354.2c-.109.062-.224.118-.347.177a11.093,11.093,0,0,1-1.4.524l-.351.1h0q-.168.047-.347.094c-.442.111-.908.212-1.4.295-.116.021-.231.042-.351.059h0c-.116.017-.228.038-.347.052-.452.066-.919.118-1.4.16-.116.01-.231.021-.351.028h0c-.116.01-.228.017-.347.024-.456.028-.926.045-1.4.049-.116,0-.231,0-.351,0h0c-.119,0-.231,0-.347,0-.477,0-.947-.021-1.4-.049-.119-.007-.235-.014-.351-.024h0c-.119-.007-.231-.017-.347-.028-.484-.042-.95-.094-1.4-.16-.119-.014-.235-.035-.351-.052h0c-.119-.017-.231-.038-.347-.059-.495-.083-.961-.184-1.4-.295-.119-.031-.238-.062-.351-.094h0c-.119-.035-.231-.069-.347-.1a10.592,10.592,0,0,1-1.4-.524c-.123-.056-.238-.114-.351-.177a0,0,0,0,1,0,0A3.334,3.334,0,0,1,1.2,4.972C.435,4.5,0,3.949,0,3.369,0,1.509,4.465,0,9.968,0S19.931,1.509,19.931,3.369Z" transform="translate(3.86)" fill="#fcd462"/>
  <path id="Path-39" data-name="Path" d="M8.985,4.855c-.1,0-.193,0-.29,0-.462,0-.916-.019-1.374-.047C7.209,4.8,7.1,4.792,7,4.783l-.043,0H6.937c-.09-.006-.176-.014-.264-.021C6.156,4.713,5.715,4.663,5.3,4.6c-.094-.012-.161-.022-.226-.033L4.877,4.54c-.07-.011-.25-.044-.25-.044-.452-.076-.887-.167-1.339-.281-.106-.028-.22-.057-.327-.087l-.334-.1A10.112,10.112,0,0,1,1.547,3.64v0l-.531-.255L.848,3.287H.841L.764,3.24C.2,2.888,0,2.583,0,2.428,0,1.572,3.423,0,9.016,0s9.012,1.572,9.012,2.428c0,.155-.2.456-.748.8A2.8,2.8,0,0,1,17,3.387l-.051.027c-.088.051-.183.1-.283.143A10.2,10.2,0,0,1,15.4,4.03l-.329.1q-.161.045-.332.089c-.444.112-.878.2-1.32.277-.1.017-.185.033-.274.047l-.191.029c-.062.01-.124.02-.189.028-.446.065-.886.115-1.374.157-.1.009-.2.018-.3.024l-.061,0c-.105.009-.208.016-.316.022-.46.028-.915.044-1.355.047-.118,0-.218,0-.319,0Z" transform="translate(4.811 0.941)" fill="#f6c358"/>
  <g id="Group-4" data-name="Group" transform="translate(5.059 4.965)">
    <path id="Path-40" data-name="Path" d="M.7.375V3.019C.579,2.963.463,2.9.351,2.842a0,0,0,0,1,0,0A3.306,3.306,0,0,1,0,2.644V0A3.325,3.325,0,0,0,.347.194a0,0,0,0,0,0,0C.463.26.579.319.7.375Z" transform="translate(0 0.007)" fill="#dc8744"/>
    <path id="Path-41" data-name="Path" d="M.7.2V2.842C.582,2.81.463,2.779.351,2.748h0C.228,2.713.116,2.679,0,2.644V0C.116.035.228.069.347.1h0C.463.135.582.167.7.2Z" transform="translate(2.104 0.906)" fill="#dc8744"/>
    <path id="Path-42" data-name="Path" d="M.7.111V2.755C.582,2.741.466,2.72.351,2.7h0C.228,2.686.116,2.665,0,2.644V0C.116.021.228.042.347.059h0C.466.076.582.1.7.111Z" transform="translate(4.209 1.398)" fill="#dc8744"/>
    <path id="Path-43" data-name="Path" d="M.7.052V2.7C.582,2.689.466,2.682.351,2.672h0C.228,2.665.116,2.654,0,2.644V0C.116.01.228.021.347.028h0C.466.038.582.045.7.052Z" transform="translate(6.313 1.669)" fill="#dc8744"/>
    <path id="Path-44" data-name="Path" d="M.7,0V2.644c-.116,0-.231,0-.351,0h0c-.119,0-.231,0-.347,0V0C.116,0,.228,0,.347,0h0C.47,0,.586,0,.7,0Z" transform="translate(8.417 1.77)" fill="#dc8744"/>
    <path id="Path-45" data-name="Path" d="M.7,0V2.644c-.116.01-.231.021-.351.028h0C.231,2.682.119,2.689,0,2.7V.052C.119.045.231.038.347.028h0C.47.021.586.01.7,0Z" transform="translate(10.522 1.669)" fill="#dc8744"/>
    <path id="Path-46" data-name="Path" d="M.7,0V2.644C.586,2.665.47,2.686.351,2.7h0C.231,2.72.119,2.741,0,2.755V.111C.119.1.231.076.347.059h0C.47.042.586.021.7,0Z" transform="translate(12.626 1.398)" fill="#dc8744"/>
    <path id="Path-47" data-name="Path" d="M.7,0V2.644l-.351.1h0L0,2.842V.2Q.179.151.347.1h0Z" transform="translate(14.73 0.906)" fill="#dc8744"/>
    <path id="Path-48" data-name="Path" d="M.7,0V2.651c-.109.066-.224.135-.351.2a0,0,0,0,0,0,0c-.109.059-.224.115-.347.173V.382C.123.323.238.267.347.2A3.513,3.513,0,0,0,.7,0Z" transform="translate(16.835)" fill="#dc8744"/>
  </g>
</svg>
