<svg xmlns="http://www.w3.org/2000/svg" width="22.209" height="27.144" viewBox="0 0 22.209 27.144">
  <path id="ic_cake_24px" d="M14.1,7.4a2.467,2.467,0,0,0,2.468-2.468,2.349,2.349,0,0,0-.358-1.271L14.1,0l-2.11,3.664a2.349,2.349,0,0,0-.358,1.271A2.475,2.475,0,0,0,14.1,7.4ZM19.78,19.729l-1.32-1.32-1.333,1.32a4.372,4.372,0,0,1-6.033,0l-1.32-1.32-1.345,1.32a4.238,4.238,0,0,1-3.01,1.246A4.287,4.287,0,0,1,3,20.222V25.91a1.237,1.237,0,0,0,1.234,1.234H23.975a1.237,1.237,0,0,0,1.234-1.234V20.222a4.287,4.287,0,0,1-2.418.753A4.238,4.238,0,0,1,19.78,19.729ZM21.507,11.1H15.338V8.637H12.87V11.1H6.7a3.7,3.7,0,0,0-3.7,3.7v1.9a2.422,2.422,0,0,0,2.418,2.418,2.368,2.368,0,0,0,1.7-.7l2.64-2.628,2.628,2.628a2.475,2.475,0,0,0,3.418,0l2.64-2.628,2.628,2.628a2.389,2.389,0,0,0,1.7.7A2.422,2.422,0,0,0,25.2,16.706v-1.9A3.678,3.678,0,0,0,21.507,11.1Z" transform="translate(-3)" fill="#2e2e2e"/>
</svg>
