<svg id="Etherium" xmlns="http://www.w3.org/2000/svg" width="21.405" height="34.207" viewBox="0 0 21.405 34.207">
  <g id="Group">
    <path id="Shape" d="M10.757,0h0V12.591a.117.117,0,0,1-.11.108c-.384.162-.713.324-1.1.486-.494.216-1.043.432-1.537.7L6.2,14.7l-1.482.648-1.811.811c-.494.216-.988.432-1.537.7-.384.162-.823.378-1.207.54-.055,0-.055.054-.11,0H0c.165-.27.329-.486.494-.757.878-1.459,1.811-2.918,2.689-4.377C4.116,10.7,5.1,9.133,6.037,7.566c.878-1.459,1.756-2.918,2.634-4.323C9.33,2.162,9.989,1.135,10.593.054c.11,0,.11-.054.165-.054Z" fill="#8a92b2"/>
    <path id="Shape-2" data-name="Shape" d="M10.7,4.755h0C9.879,5.3,9,5.782,8.178,6.269,5.488,7.836,2.854,9.349.165,10.916c-.055,0-.055.054-.11.054A.053.053,0,0,1,0,10.916V.054C0,0,.055,0,.11,0c.22.108.439.216.713.324.659.324,1.372.594,2.031.919.6.27,1.153.54,1.756.757.6.27,1.153.54,1.756.811.494.216,1.043.432,1.537.7.494.216,1.043.432,1.537.7.384.162.768.378,1.207.54C10.647,4.7,10.647,4.755,10.7,4.755Z" transform="translate(10.702 12.645)" fill="#454a75"/>
    <path id="Shape-3" data-name="Shape" d="M10.7,14.753h0c-.055,0-.055,0-.11-.054-1.1-1.513-2.14-2.972-3.238-4.485L4.061,5.674C3.019,4.215,1.921,2.756.878,1.243L.055.108C.055.054,0,.054,0,0,.055,0,.055.054.11.054c1.482.865,3.019,1.729,4.5,2.594,1.7,1.027,3.458,2,5.159,3.026.274.162.6.324.878.486.055,0,.055.054.055.108v8.484Z" transform="translate(0.055 19.454)" fill="#8a92b2"/>
    <path id="Shape-4" data-name="Shape" d="M0,0Z" transform="translate(0.055 17.401)" fill="gray"/>
    <path id="Shape-5" data-name="Shape" d="M0,4.864H0c.549-.27,1.1-.486,1.647-.757l2.14-.973c.549-.27,1.1-.486,1.647-.757C6.2,2,7.025,1.675,7.793,1.3c.549-.216,1.1-.486,1.647-.7a11.047,11.047,0,0,0,1.153-.54c.055,0,.055-.054.11-.054V11.024c-.055.054-.055,0-.11,0a3.071,3.071,0,0,1-.439-.27L.11,4.918A.171.171,0,0,0,0,4.864Z" transform="translate(0.11 12.591)" fill="#62688f"/>
    <path id="Shape-6" data-name="Shape" d="M10.593,0h0c0,.054,0,.054-.055.108C7.354,4.539,4.171,8.916.988,13.348c-.329.486-.659.919-.988,1.405V6.16C.713,5.728,1.427,5.3,2.14,4.918l8.4-4.864A.053.053,0,0,1,10.593,0Z" transform="translate(10.757 19.454)" fill="#62688f"/>
    <path id="Shape-7" data-name="Shape" d="M0,12.591H0V0L10.538,17.185c.055.054.11.108.11.162-.22-.108-.439-.216-.713-.324s-.549-.27-.823-.378a5.746,5.746,0,0,0-.549-.216c-.274-.108-.6-.27-.878-.378-.165-.054-.329-.162-.494-.216l-1.153-.486c-.22-.108-.384-.162-.6-.27-.274-.108-.549-.27-.823-.378-.165-.054-.329-.162-.494-.216L2.964,14c-.22-.108-.384-.162-.6-.27-.274-.108-.549-.27-.823-.378-.165-.108-.384-.162-.549-.27L0,12.591Z" transform="translate(10.757 0.054)" fill="#62688f"/>
  </g>
</svg>
