<svg id="Etherium" xmlns="http://www.w3.org/2000/svg" width="38.645" height="61.759" viewBox="0 0 38.645 61.759">
  <g id="Group">
    <path id="Shape" d="M19.422,0h0V22.733a.212.212,0,0,1-.2.2c-.694.293-1.288.585-1.982.878-.892.39-1.883.781-2.775,1.268L11.2,26.538,8.522,27.709l-3.27,1.463c-.892.39-1.784.781-2.775,1.268-.694.293-1.486.683-2.18.976-.1,0-.1.1-.2,0H0c.3-.488.595-.878.892-1.366,1.585-2.634,3.27-5.269,4.855-7.9,1.685-2.829,3.468-5.659,5.153-8.488,1.585-2.634,3.171-5.269,4.756-7.805C16.845,3.9,18.034,2.049,19.124.1c.2,0,.2-.1.3-.1Z" fill="#8a92b2"/>
    <path id="Shape-2" data-name="Shape" d="M19.322,8.586h0c-1.486.976-3.072,1.854-4.558,2.732C9.909,14.147,5.153,16.879.3,19.708c-.1,0-.1.1-.2.1a.1.1,0,0,1-.1-.1V.1C0,0,.1,0,.2,0c.4.2.793.39,1.288.585,1.189.585,2.477,1.073,3.666,1.659,1.09.488,2.081.976,3.171,1.366,1.09.488,2.081.976,3.171,1.463.892.39,1.883.781,2.775,1.268.892.39,1.883.781,2.775,1.268.694.293,1.387.683,2.18.976C19.223,8.488,19.223,8.586,19.322,8.586Z" transform="translate(19.322 22.83)" fill="#454a75"/>
    <path id="Shape-3" data-name="Shape" d="M19.322,26.635h0c-.1,0-.1,0-.2-.1-1.982-2.732-3.864-5.366-5.846-8.1l-5.945-8.2c-1.883-2.634-3.864-5.269-5.747-8L.1.2C.1.1,0,.1,0,0,.1,0,.1.1.2.1,2.874,1.659,5.648,3.22,8.324,4.781c3.072,1.854,6.243,3.61,9.314,5.464.5.293,1.09.585,1.585.878.1,0,.1.1.1.2V26.635Z" transform="translate(0.099 35.123)" fill="#8a92b2"/>
    <path id="Shape-4" data-name="Shape" d="M0,0Z" transform="translate(0.099 31.416)" fill="gray"/>
    <path id="Shape-5" data-name="Shape" d="M0,8.781H0C.991,8.293,1.982,7.9,2.973,7.415L6.837,5.659c.991-.488,1.982-.878,2.973-1.366,1.387-.683,2.874-1.268,4.261-1.951.991-.39,1.982-.878,2.973-1.268A19.944,19.944,0,0,0,19.124.1c.1,0,.1-.1.2-.1V19.9c-.1.1-.1,0-.2,0a5.545,5.545,0,0,1-.793-.488L.2,8.878A.309.309,0,0,0,0,8.781Z" transform="translate(0.198 22.733)" fill="#62688f"/>
    <path id="Shape-6" data-name="Shape" d="M19.124,0h0c0,.1,0,.1-.1.2C13.278,8.2,7.531,16.1,1.784,24.1,1.189,24.977.595,25.757,0,26.635V11.122c1.288-.781,2.576-1.561,3.864-2.244L19.025.1A.1.1,0,0,1,19.124,0Z" transform="translate(19.422 35.123)" fill="#62688f"/>
    <path id="Shape-7" data-name="Shape" d="M0,22.733H0V0L19.025,31.026c.1.1.2.2.2.293-.4-.2-.793-.39-1.288-.585s-.991-.488-1.486-.683a10.375,10.375,0,0,0-.991-.39c-.5-.2-1.09-.488-1.585-.683-.3-.1-.595-.293-.892-.39L10.9,27.709c-.4-.2-.694-.293-1.09-.488-.5-.2-.991-.488-1.486-.683-.3-.1-.595-.293-.892-.39l-2.081-.878c-.4-.2-.694-.293-1.09-.488-.5-.2-.991-.488-1.486-.683-.3-.2-.694-.293-.991-.488L0,22.733Z" transform="translate(19.422 0.098)" fill="#62688f"/>
  </g>
</svg>
