<svg id="fire" xmlns="http://www.w3.org/2000/svg" width="28.847" height="35.263" viewBox="0 0 28.847 35.263">
  <path id="Shape" d="M14.246,35.26A14.43,14.43,0,0,1,.48,17.139l.579-2.191,1.273,1.871a11.3,11.3,0,0,0,2.022,2.054,28.121,28.121,0,0,1,.758-6.881C6.667,5.668,10.477,1.652,16.133.377L17.81,0l-.452,1.658c-1.065,3.908-.853,6.45-.487,7.895a3.937,3.937,0,0,0,2.1,2.952c1.222.424,2.536-.528,3.348-2.43l.7-1.648,1.074,1.434a11.586,11.586,0,0,1,2.448,8.725,10.92,10.92,0,0,1-.359,1.634,4.631,4.631,0,0,0,.789-.769l1.7-2.206.156,2.779c.016.277.023.552.023.815A14.439,14.439,0,0,1,14.6,35.26l-.177,0Z" transform="translate(0)" fill="#f47217"/>
</svg>
