<svg xmlns="http://www.w3.org/2000/svg" xmlns:xlink="http://www.w3.org/1999/xlink" width="540" height="301" viewBox="0 0 540 301">
  <defs>
    <radialGradient id="radial-gradient" cx="0.5" cy="0.5" r="0.53" gradientUnits="objectBoundingBox">
      <stop offset="0" stop-color="#5a34ea"/>
      <stop offset="1" stop-color="#6b47f6"/>
    </radialGradient>
    <filter id="Rectangle" x="0" y="0" width="540" height="301" filterUnits="userSpaceOnUse">
      <feOffset dy="8" input="SourceAlpha"/>
      <feGaussianBlur stdDeviation="8" result="blur"/>
      <feFlood flood-color="#356e9e" flood-opacity="0.2"/>
      <feComposite operator="in" in2="blur"/>
      <feComposite in="SourceGraphic"/>
    </filter>
    <filter id="Rectangle-2" x="0" y="0" width="540" height="301" filterUnits="userSpaceOnUse">
      <feOffset dy="8" input="SourceAlpha"/>
      <feGaussianBlur stdDeviation="8" result="blur-2"/>
      <feFlood flood-color="#356e9e" flood-opacity="0.2"/>
      <feComposite operator="in" in2="blur-2"/>
      <feComposite in="SourceGraphic"/>
    </filter>
    <filter id="Rectangle-3" x="0" y="0" width="540" height="301" filterUnits="userSpaceOnUse">
      <feOffset dy="8" input="SourceAlpha"/>
      <feGaussianBlur stdDeviation="8" result="blur-3"/>
      <feFlood flood-color="#356e9e" flood-opacity="0.2"/>
      <feComposite operator="in" in2="blur-3"/>
      <feComposite in="SourceGraphic"/>
    </filter>
    <clipPath id="clip-path">
      <g transform="matrix(1, 0, 0, 1, 0, 0)" filter="url(#Rectangle)">
        <rect id="Rectangle-4" data-name="Rectangle" width="492" height="253" rx="8" fill="url(#radial-gradient)"/>
      </g>
    </clipPath>
    <linearGradient id="linear-gradient" x1="0.5" x2="0.5" y2="1" gradientUnits="objectBoundingBox">
      <stop offset="0" stop-color="#f7f7f7"/>
      <stop offset="1" stop-color="#ececec" stop-opacity="0"/>
    </linearGradient>
  </defs>
  <g id="Group_897" data-name="Group 897" transform="translate(-1086 -429.68)">
    <g id="Group_830" data-name="Group 830" transform="translate(1110 445.68)">
      <g id="Component_26_76" data-name="Component 26 – 76">
        <g id="Group_3" data-name="Group 3">
          <g transform="matrix(1, 0, 0, 1, -24, -16)" filter="url(#Rectangle-3)">
            <rect id="Rectangle-6" data-name="Rectangle" width="492" height="253" rx="8" transform="translate(24 16)" fill="url(#radial-gradient)"/>
          </g>
          <g id="Group_3-2" data-name="Group 3" clip-path="url(#clip-path)">
            <path id="Oval" d="M684.21,468.625c377.879,0,684.21-85.49,684.21-190.948,0-24-3.955-61.257-17.53-100.883-24.772-72.313-81.578-152.511-204.838-174.4-106.014-18.826-125.438,79.562-561.622,79.562C206.551,81.956,0,172.22,0,277.677S306.331,468.625,684.21,468.625Z" transform="translate(83.195 10.177)" opacity="0.1" fill="url(#linear-gradient)"/>
            <rect id="Rectangle-7" data-name="Rectangle" width="127.662" height="34.5" rx="8" transform="translate(22.95 23)" fill="#f6c358" opacity="0.1"/>
            <text id="Win_Today_" data-name="Win Today!" transform="translate(34.426 41.625)" fill="#f6c358" font-size="16" font-family="HKGrotesk-Bold, HK Grotesk" font-weight="700"><tspan x="0" y="0">NEXT DRAW</tspan></text>
            <text id="Biggest_jackpot_yet_" data-name="Biggest jackpot yet!" transform="translate(22.95 139.387)" fill="#f9fbff" font-size="16" font-family="HKGrotesk-Regular, HK Grotesk" opacity="0.6"><tspan x="0" y="0">JACKPOT TOMORROW!</tspan></text>
            <rect id="Rectangle-8" data-name="Rectangle" width="149.178" height="46" rx="8" transform="translate(25.819 175.375)" fill="#f6c358"/>
            <text id="Play_Now" data-name="Play Now" transform="translate(55.942 192.563)" fill="#1a0d49" font-size="12" font-family="HKGrotesk-Bold, HK Grotesk" font-weight="700"><tspan x="20.165" y="11">Play Now</tspan></text>
            <text id="_64_Million" data-name="$64 Million" transform="translate(22.95 102.4)" fill="#f9fbff" font-size="39" font-family="HKGrotesk-SemiBold, HK Grotesk" font-weight="600"><tspan x="0" y="0">$10 Million</tspan></text>
          </g>
        </g>
        <g id="Group_3-3" data-name="Group 3">
          <path id="Rectangle-9" data-name="Rectangle" d="M8,0H484a8,8,0,0,1,8,8V245a8,8,0,0,1-8,8H8a8,8,0,0,1-8-8V8A8,8,0,0,1,8,0Z" fill="#212b36"/>
          <g id="Group_3-4" data-name="Group 3" clip-path="url(#clip-path)">
            <path id="Oval-2" data-name="Oval" d="M684.4,467.743c377.982,0,684.4-85.329,684.4-190.588,0-23.953-3.956-61.141-17.535-100.693-24.779-72.177-81.6-152.224-204.894-174.072C1040.322-16.4,1020.892,81.8,584.589,81.8,206.607,81.8,0,171.9,0,277.155S306.415,467.743,684.4,467.743Z" transform="translate(83.218 10.158)" opacity="0.15" fill="url(#linear-gradient)"/>
            <path id="Rectangle-10" data-name="Rectangle" d="M8,0H120a8,8,0,0,1,8,8V27a8,8,0,0,1-8,8H8a8,8,0,0,1-8-8V8A8,8,0,0,1,8,0Z" transform="translate(23 23)" fill="#f6c358" opacity="0.1"/>
            <text id="Win_Today_2" data-name="Win Today!" transform="translate(31 45)" fill="#f6c358" font-size="16" font-family="HKGrotesk-Bold, HK Grotesk" font-weight="700"><tspan x="0" y="0">FIAT DEPOSIT</tspan></text>
            <text id="Biggest_jackpot_yet_2" data-name="Biggest jackpot yet!" transform="translate(23 139)" fill="#fff" font-size="18" font-family="HKGrotesk-Regular, HK Grotesk" opacity="0.6"><tspan x="0" y="0">Instant deposit</tspan></text>
            <rect id="Rectangle-11" data-name="Rectangle" width="150" height="46" rx="8" transform="translate(25 175)" fill="#f6c358"/>
            <text id="Play_Now-2" data-name="Play Now" transform="translate(55 186)" fill="#1a0d49" font-size="12" font-family="HKGrotesk-Bold, HK Grotesk" font-weight="700"><tspan x="20.198" y="11">Play Now</tspan></text>
            <text id="_64_Million-2" data-name="$64 Million" transform="translate(23 108)" fill="#f6c358" font-size="39" font-family="HKGrotesk-SemiBold, HK Grotesk" font-weight="600"><tspan x="0" y="0">PAYPAL DEPOSIT</tspan></text>
          </g>
        </g>
      </g>
      <rect id="Rectangle-12" data-name="Rectangle" width="193" height="60" rx="8" transform="translate(23 175)" fill="#f6c358"/>
      <text id="Play_Now-3" data-name="Play Now" transform="translate(76.5 191.5)" fill="#212b36" font-size="22" font-family="HKGrotesk-Bold, HK Grotesk" font-weight="700"><tspan x="1.027" y="20">DEPOSIT</tspan></text>
    </g>
    <g id="Group_835" data-name="Group 835" transform="translate(1592 -1030.056)">
      <g id="visa-dark-large" transform="translate(-252 1667)">
        <rect id="card_bg" width="48" height="32" rx="4" fill="#212b36"/>
        <path id="visa-logo" d="M17.014,9.52a7.127,7.127,0,0,1-2.6-.491l.43-2a5.019,5.019,0,0,0,2.377.6h.063c.712-.01,1.43-.3,1.43-.91.01-.392-.326-.7-1.24-1.15-.9-.439-2.09-1.176-2.09-2.51,0-1.8,1.645-3.06,4-3.06a6.414,6.414,0,0,1,2.24.41l-.419,2a4.512,4.512,0,0,0-1.92-.432c-.147,0-.295.007-.441.022-.691.091-1,.453-1,.77,0,.388.5.647,1.123.975,1,.521,2.234,1.17,2.227,2.695l.05-.08c-.01,1.92-1.647,3.16-4.17,3.16Zm6.626-.08H21.12L24.71.87a1.087,1.087,0,0,1,1-.68h2l1.939,9.249H27.43l-.29-1.38H24.13l-.49,1.38ZM26.02,2.69,24.76,6.16h1.99ZM12.7,9.41H10.3l2-9.25h2.4l-2,9.249ZM7.45,9.38H4.84L2.93,1.99a1,1,0,0,0-.571-.81A9.917,9.917,0,0,0,0,.4L.06.13H4.13a1.118,1.118,0,0,1,1.11.941l1,5.35L8.73.13h2.6L7.45,9.379Z" transform="translate(9.16 11.23)" fill="#fff"/>
      </g>
      <g id="mastercard-dark-large" transform="translate(-199.712 1667)">
        <rect id="card_bg-2" data-name="card_bg" width="48" height="32" rx="4" fill="#212b36"/>
        <g id="mastercard" transform="translate(4.65 3.2)">
          <g id="Group" opacity="0">
            <rect id="Rectangle-13" data-name="Rectangle" width="38.71" height="25.6" fill="#fff"/>
          </g>
          <rect id="Rectangle-14" data-name="Rectangle" width="10.21" height="16.68" transform="translate(14.25 4.46)" fill="#f26122"/>
          <path id="Path" d="M13.169,10.61a10.58,10.58,0,0,1,4-8.34,10.61,10.61,0,1,0,0,16.68A10.58,10.58,0,0,1,13.169,10.61Z" transform="translate(2.181 2.19)" fill="#ea1d25"/>
          <path id="Shape" d="M.5.411H.43V0h.1L.66.29.78,0h.1V.409H.81V.1L.7.37H.62L.5.1V.41ZM.2.41H.14V.07H0V0H.35V.07H.2V.409Z" transform="translate(35.29 18.96)" fill="#f69e1e"/>
          <path id="Path-2" data-name="Path" d="M17.16,10.6A10.61,10.61,0,0,1,0,18.943,10.61,10.61,0,0,0,1.78,4.053,10.4,10.4,0,0,0,0,2.263,10.61,10.61,0,0,1,17.16,10.6Z" transform="translate(19.35 2.197)" fill="#f69e1e"/>
        </g>
      </g>
      <g id="americanexpress-dark-large" transform="translate(-147.424 1667)">
        <rect id="card_bg-3" data-name="card_bg" width="48" height="32" rx="4" transform="translate(0.001)" fill="#212b36"/>
        <g id="amex" transform="translate(0 7.2)">
          <path id="Path-3" data-name="Path" d="M1.27.88,1.81,2.2H0L.55.88.91,0l.36.88Z" transform="translate(2.381 2.46)" fill="#fff"/>
          <path id="Shape-2" data-name="Shape" d="M30.961,8.2a3.979,3.979,0,0,1-2.32-.741V8.2h-4.81l-1.16-1.46V8.2H4.331L3.871,6.98H2.751L2.28,8.2H0V6.98H1.521L2,5.8H4.63l.481,1.14h1.54L4.231,1.3H2.451L0,6.978V3.8L1.6,0h3.26L5.8,2.1V0h4l.6,1.8L11,.04h17.64V.86A3.9,3.9,0,0,1,31.029.038l.112,0h5.34l1,2.1V.04h3.14l1.07,1.66V.04h3.59V8.2H41.9l-1-1.579V8.2H36l-.49-1.219h-1.12L33.931,8.2h-2.97Zm7.6-6.9V6.98H39.9V3.18l.36.62,2.091,3.14h1.6L44,1.26H42.6V4.94l-.38-.64-2-3Zm-4.469,0L31.671,6.98h1.46L33.61,5.8h2.67l.48,1.14H38.3L35.891,1.3Zm-3.271-.006A2.551,2.551,0,0,0,28.281,4.08v.08a2.5,2.5,0,0,0,2.483,2.784c.046,0,.092,0,.137,0h.08l.55-1.2H31.1l-.07,0A1.4,1.4,0,0,1,29.64,4.16V4.08a1.4,1.4,0,0,1,1.39-1.561l.07,0h1.49V1.3H31C30.94,1.3,30.88,1.293,30.819,1.293ZM26.111,1.3V6.94h1.37V1.3ZM21.791,4.94h.62l1.68,2h1.74l-1.88-2.08a1.742,1.742,0,0,0,1.54-1.78,1.771,1.771,0,0,0-2-1.78H20.4V6.94h1.39v-2Zm-9.2-2.554h0V6.94h1.32V1.3H11.7L10.581,4.56l-.18.62-.18-.62L9.12,1.3H6.911V6.94H8.22V2.38l.28.86,1.281,3.7H11l1.33-3.7ZM15,1.3V6.9h4.5V5.7H16.33v-1h3.091V3.5H16.33v-1H19.5V1.3ZM35.9,4.66H34.122l.519-1.32L35,2.46l.34.841.2.484-.2-.484L35,2.46l.36.88.206.5h0l.318.772h0l-.59-1.278.61,1.319ZM23.46,3.747a.619.619,0,0,1-.089-.007h-1.58V2.5h1.58a.628.628,0,0,1,.7.617v.02a.61.61,0,0,1-.61.61Zm.4-.194a.609.609,0,0,1-.4.154A.608.608,0,0,0,23.865,3.553Z" transform="translate(0 0)" fill="#fff"/>
          <path id="Shape-3" data-name="Shape" d="M20.5,8.161H17.07V6.1a4.927,4.927,0,0,1-1.456.22h-.6V8.16H9.96L9.12,6.94,8.26,8.16H0V0H8.28l.84,1.2L9.98,0H39.12V1.26H36.19A1.74,1.74,0,0,0,34.25,3.04,1.569,1.569,0,0,0,36.01,4.7H37.3a.511.511,0,0,1,.525.217A.509.509,0,0,1,37.3,5.7H34.41V6.9h2.87c.054,0,.109.007.163.007A1.777,1.777,0,0,0,39.1,5.76v1.9a3.348,3.348,0,0,1-1.763.5H21.66L20.5,6.7V8.16ZM9.12,5.1h0L10.48,6.9l1.721.04L9.92,4.1l2.24-2.84H10.5L9.12,3.04,7.75,1.28H6.05L8.32,4.1,6.12,6.9H7.71L9.119,5.1Zm20.08.6V6.9H32.12c.046,0,.093.006.139.006A1.75,1.75,0,0,0,34.01,5.1a1.549,1.549,0,0,0-1.76-1.62H30.94a.51.51,0,1,1,0-1h2.43l.54-1.2H30.98A1.74,1.74,0,0,0,29.04,3.04,1.569,1.569,0,0,0,30.8,4.7h1.32a.51.51,0,1,1,0,1Zm-9.63-.8h.62l1.68,2h1.74L21.72,4.82A1.793,1.793,0,0,0,21.3,1.26H18.24V6.9H19.57v-2ZM12.44,1.26V6.9h1.34V5.04h1.73a1.85,1.85,0,0,0,2.04-1.9,1.81,1.81,0,0,0-2-1.88Zm11.49,0V6.84h4.55V5.64H25.31v-1H28.4V3.46H25.31v-1h3.14l.03-1.2ZM1.3,1.26V6.84H5.83V5.64H2.66v-1H5.77V3.46H2.66v-1H5.83V1.26ZM39.068,4.4A1.619,1.619,0,0,0,37.43,3.46H36.12a.51.51,0,1,1,0-1H38.58l.49-1.16V4.4ZM15.43,3.84H13.81V2.46h1.62a.69.69,0,0,1,0,1.381Zm5.841-.134A.612.612,0,0,1,21.18,3.7H19.6V2.46h1.58a.63.63,0,0,1,.079,0,.62.62,0,0,1,.622.625V3.1a.61.61,0,0,1-.61.61Z" transform="translate(8.881 10.7)" fill="#fff"/>
        </g>
      </g>
      <g id="paypal-dark-large" transform="translate(-95.135 1667)">
        <rect id="card_bg-4" data-name="card_bg" width="48" height="32" rx="4" fill="#212b36"/>
        <g id="paypal" transform="translate(15.524 6)">
          <path id="Path-4" data-name="Path" d="M4.11,18.64l.35-2.2H0L2.56.18A.21.21,0,0,1,2.63.05.24.24,0,0,1,2.77,0H8.98c2.07,0,3.49.43,4.24,1.28a2.75,2.75,0,0,1,.67,1.27,4.42,4.42,0,0,1,0,1.75v.5l.35.2a2.49,2.49,0,0,1,.71.53,2.59,2.59,0,0,1,.57,1.29,5.73,5.73,0,0,1-.08,1.86,6.48,6.48,0,0,1-.77,2.11,4.3,4.3,0,0,1-1.21,1.33,5.06,5.06,0,0,1-1.63.73,7.91,7.91,0,0,1-2,.24H9.34a1.47,1.47,0,0,0-.94.34,1.42,1.42,0,0,0-.49.88v.2L7.3,18.39v.15a.15.15,0,0,1,0,.08H7.24Z" transform="translate(0.706 0.68)" fill="#253d80"/>
          <path id="Path-5" data-name="Path" d="M11.175,0l-.06.37c-.82,4.2-3.63,5.66-7.21,5.66H2.085a.89.89,0,0,0-.88.75L.275,12.7l-.27,1.68a.47.47,0,0,0,.46.54h3.24a.78.78,0,0,0,.77-.66V14.1l.61-3.87v-.21a.77.77,0,0,1,.76-.66h.53c3.13,0,5.59-1.27,6.3-5a4.24,4.24,0,0,0-.64-3.73,3.23,3.23,0,0,0-.86-.63Z" transform="translate(4.101 5.08)" fill="#189bd7"/>
          <path id="Path-6" data-name="Path" d="M9.04.291l-.38-.1L8.24.111A10.06,10.06,0,0,0,6.64,0H1.76a.72.72,0,0,0-.33.07A.76.76,0,0,0,1,.651L0,7.221v.19a.89.89,0,0,1,.88-.75H2.7C6.28,6.661,9.09,5.2,9.91,1l.06-.37A4.48,4.48,0,0,0,9.3.351Z" transform="translate(5.376 4.449)" fill="#242e65"/>
          <path id="Path-7" data-name="Path" d="M6.376,5.1a.76.76,0,0,1,.43-.58.72.72,0,0,1,.33-.07h4.88a10.06,10.06,0,0,1,1.6.11l.42.08.38.1.19.06a4.48,4.48,0,0,1,.67.28,4,4,0,0,0-.8-3.57C13.476.45,11.836,0,9.7,0H3.476A.89.89,0,0,0,2.6.75L.006,17.16a.54.54,0,0,0,.53.62h3.84l1-6.11Z" fill="#253d80"/>
        </g>
      </g>
    </g>
  </g>
</svg>
