<svg id="powerball" xmlns="http://www.w3.org/2000/svg" width="62.32" height="62.32" viewBox="0 0 62.32 62.32">
  <g id="Group_16" data-name="Group 16">
    <ellipse id="Oval" cx="31.16" cy="31.16" rx="31.16" ry="31.16" fill="#f6c358"/>
    <path id="Star" d="M37.005,61.978l-8.085,5.2-4.4-8.547-9.6.462.462-9.6-8.547-4.4,5.2-8.085-5.2-8.085,8.547-4.4-.462-9.6,9.6.462,4.4-8.547,8.085,5.2,8.085-5.2,4.4,8.547,9.6-.462-.462,9.6,8.547,4.4-5.2,8.085,5.2,8.085-8.547,4.4.462,9.6-9.6-.462-4.4,8.547Z" transform="translate(-5.767 -5.767)" fill="#fff" opacity="0.236"/>
    <path id="Star-2" data-name="Star" d="M24.079,44.007l-6.452,4.15-3.512-6.82-7.663.368.368-7.663L0,30.53l4.15-6.452L0,17.627l6.82-3.512L6.452,6.452l7.663.368L17.627,0l6.452,4.15L30.53,0l3.512,6.82,7.663-.368-.368,7.663,6.82,3.512-4.15,6.452,4.15,6.452-6.82,3.512.368,7.663-7.663-.368-3.512,6.82Z" transform="matrix(0.966, -0.259, 0.259, 0.966, 1.748, 14.212)" fill="#fff" opacity="0.2"/>
    <path id="Star-3" data-name="Star" d="M18.661,34.105l-5,3.217-2.722-5.286L5,32.322l.285-5.939L0,23.661l3.217-5L0,13.661l5.286-2.722L5,5l5.939.285L13.661,0l5,3.217,5-3.217,2.722,5.286L32.322,5l-.285,5.939,5.286,2.722-3.217,5,3.217,5-5.286,2.722.285,5.939-5.939-.285-2.722,5.286Z" transform="matrix(0.875, -0.485, 0.485, 0.875, 6.403, 24.497)" fill="#fff" opacity="0.2"/>
    <path id="Star-4" data-name="Star" d="M14.748,26.954,10.8,29.5,8.645,25.319l-4.693.226.226-4.693L0,18.7l2.542-3.952L0,10.8,4.177,8.645,3.952,3.952l4.693.226L10.8,0l3.952,2.542L18.7,0l2.151,4.177,4.693-.226-.226,4.693L29.5,10.8l-2.542,3.952L29.5,18.7l-4.177,2.151.226,4.693-4.693-.226L18.7,29.5Z" transform="translate(13.893 21.029) rotate(-14)" fill="#fff" opacity="0.2"/>
    <path id="Star-5" data-name="Star" d="M14.4,24.111l-3.145,2.023L9.539,22.81l-3.736.18.18-3.736L2.658,17.541,4.681,14.4,2.658,11.251,5.983,9.539,5.8,5.8l3.736.18,1.712-3.325L14.4,4.681l3.145-2.023,1.712,3.325,3.736-.18-.18,3.736,3.325,1.712L24.111,14.4l2.023,3.145L22.81,19.254l.18,3.736-3.736-.18-1.712,3.325Z" transform="translate(17.375 17.375)" fill="#fff" opacity="0.2"/>
    <path id="Star-6" data-name="Star" d="M8.578,15.677l-2.3,1.479-1.251-2.43-2.73.131.131-2.73L0,10.876l1.479-2.3L0,6.28,2.43,5.028,2.3,2.3l2.73.131L6.28,0l2.3,1.479L10.876,0l1.251,2.43,2.73-.131-.131,2.73,2.43,1.251-1.479,2.3,1.479,2.3-2.43,1.251.131,2.73-2.73-.131-1.251,2.43Z" transform="matrix(0.966, 0.259, -0.259, 0.966, 25.705, 21.265)" fill="#fff" opacity="0.2"/>
    <path id="Star-7" data-name="Star" d="M6.622,12.1,4.847,13.243l-.966-1.876-2.107.1.1-2.107L0,8.4,1.141,6.622,0,4.847l1.876-.966-.1-2.107,2.107.1L4.847,0,6.622,1.141,8.4,0l.966,1.876,2.107-.1-.1,2.107,1.876.966L12.1,6.622,13.243,8.4l-1.876.966.1,2.107-2.107-.1L8.4,13.243Z" transform="translate(31.771 22.406) rotate(45)" fill="#fff" opacity="0.2"/>
    <path id="Star-8" data-name="Star" d="M24.079,44.007l-6.452,4.15-3.512-6.82-7.663.368.368-7.663L0,30.53l4.15-6.452L0,17.627l6.82-3.512L6.452,6.452l7.663.368L17.627,0l6.452,4.15L30.53,0l3.512,6.82,7.663-.368-.368,7.663,6.82,3.512-4.15,6.452,4.15,6.452-6.82,3.512.368,7.663-7.663-.368-3.512,6.82Z" transform="matrix(0.966, -0.259, 0.259, 0.966, 1.748, 14.212)" fill="#fff" opacity="0.261"/>
    <ellipse id="Oval-2" data-name="Oval" cx="24.928" cy="24.928" rx="24.928" ry="24.928" transform="translate(6.232 6.232)" fill="#fff" opacity="0.3"/>
    <ellipse id="Oval-3" data-name="Oval" cx="19.319" cy="19.319" rx="19.319" ry="19.319" transform="translate(11.841 11.841)" fill="#fff" opacity="0.5"/>
    <ellipse id="Oval-4" data-name="Oval" cx="15.268" cy="15.268" rx="15.268" ry="15.268" transform="translate(15.892 15.892)" fill="#fff" opacity="0.6"/>
    <path id="MEGA_MILLIONS" data-name="MEGA MILLIONS" d="M-25.024,0h4.473V-4.326L-17.59,0h5.439l-5.208-7.6,4.935-6.405h-5.481l-2.646,3.087v-3.087h-4.473Zm13.141,0h8.4V-3.675H-7.41V-5.292h3.717V-8.778H-7.41v-1.554h3.78v-3.675h-8.253Zm9.571,0H2.1V-5.376L5.94,0H9.657V-14.007H5.247v5.4l-3.864-5.4h-3.7ZM10.681-6.993a7.157,7.157,0,0,0,.578,2.856A7.415,7.415,0,0,0,12.834-1.8,7.415,7.415,0,0,0,15.175-.221a7.157,7.157,0,0,0,2.856.578,7.157,7.157,0,0,0,2.856-.578A7.415,7.415,0,0,0,23.229-1.8,7.415,7.415,0,0,0,24.8-4.137a7.157,7.157,0,0,0,.577-2.856A7.135,7.135,0,0,0,24.8-9.86a7.448,7.448,0,0,0-1.575-2.331,7.415,7.415,0,0,0-2.341-1.575,7.157,7.157,0,0,0-2.856-.577,7.157,7.157,0,0,0-2.856.577,7.415,7.415,0,0,0-2.341,1.575A7.448,7.448,0,0,0,11.259-9.86,7.135,7.135,0,0,0,10.681-6.993Zm4.41,0a2.858,2.858,0,0,1,.231-1.145,2.972,2.972,0,0,1,.63-.934,2.972,2.972,0,0,1,.934-.63,2.858,2.858,0,0,1,1.145-.231,2.858,2.858,0,0,1,1.145.231,2.972,2.972,0,0,1,.934.63,2.972,2.972,0,0,1,.63.934,2.858,2.858,0,0,1,.231,1.145,2.858,2.858,0,0,1-.231,1.144,2.972,2.972,0,0,1-.63.935,2.972,2.972,0,0,1-.934.63,2.858,2.858,0,0,1-1.145.231,2.858,2.858,0,0,1-1.145-.231,2.972,2.972,0,0,1-.934-.63,2.972,2.972,0,0,1-.63-.935A2.858,2.858,0,0,1,15.091-6.993Z" transform="translate(31.238 39.265)" fill="#161442"/>
  </g>
</svg>
