<svg id="XMLID_12_" xmlns="http://www.w3.org/2000/svg" width="126.727" height="39.875" viewBox="0 0 126.727 39.875">
  <path id="XMLID_30_" d="M15.841,14.2v4.271h10.18a8.82,8.82,0,0,1-2.334,5.363,10.438,10.438,0,0,1-7.846,3.128A11.191,11.191,0,0,1,4.668,15.642,11.2,11.2,0,0,1,15.841,4.271a11.029,11.029,0,0,1,7.7,3.029L26.517,4.32A14.886,14.886,0,0,0,15.841,0,15.834,15.834,0,0,0,0,15.593,15.834,15.834,0,0,0,15.841,31.185a14.274,14.274,0,0,0,10.875-4.37c2.83-2.83,3.675-6.753,3.675-9.981a11.2,11.2,0,0,0-.248-2.682h-14.3Z" fill="#4285f4"/>
  <path id="XMLID_27_" d="M76.63,21.6A10.081,10.081,0,1,0,86.76,31.681,9.943,9.943,0,0,0,76.63,21.6Zm0,16.188a5.833,5.833,0,0,1-5.661-6.108,5.677,5.677,0,1,1,11.322,0A5.833,5.833,0,0,1,76.63,37.788Z" transform="translate(-33.478 -10.874)" fill="#ea4335"/>
  <path id="XMLID_23_" d="M171.5,23.835h-.149a6.918,6.918,0,0,0-5.313-2.235c-5.015,0-9.435,4.37-9.435,10.081,0,5.661,4.37,10.081,9.435,10.081a6.94,6.94,0,0,0,5.313-2.284h.149v1.39c0,3.824-2.086,5.909-5.363,5.909a5.594,5.594,0,0,1-5.065-3.575l-3.824,1.589a9.552,9.552,0,0,0,8.938,5.959c5.164,0,9.584-3.029,9.584-10.478V22.146H171.6v1.688Zm-5.065,13.954c-3.029,0-5.363-2.582-5.363-6.108,0-3.575,2.334-6.108,5.363-6.108s5.363,2.582,5.363,6.158C171.845,35.206,169.461,37.788,166.432,37.788Z" transform="translate(-78.836 -10.874)" fill="#4285f4"/>
  <path id="XMLID_19_" d="M122.03,21.6a10.081,10.081,0,1,0,10.13,10.081A9.943,9.943,0,0,0,122.03,21.6Zm0,16.188a5.833,5.833,0,0,1-5.661-6.108,5.677,5.677,0,1,1,11.322,0A5.833,5.833,0,0,1,122.03,37.788Z" transform="translate(-56.333 -10.874)" fill="#fbbc05"/>
  <path id="XMLID_17_" d="M202.1.8h4.37V31.24H202.1Z" transform="translate(-101.742 -0.403)" fill="#34a853"/>
  <path id="XMLID_13_" d="M227.832,37.839a5.163,5.163,0,0,1-4.866-3.029l13.457-5.562-.447-1.142c-.844-2.235-3.377-6.406-8.591-6.406-5.164,0-9.485,4.072-9.485,10.081a9.85,9.85,0,0,0,9.981,10.081,10,10,0,0,0,8.392-4.469l-3.426-2.284a6.092,6.092,0,0,1-5.015,2.731Zm-.3-12.414a4.014,4.014,0,0,1,3.824,2.235l-9.087,3.774C222.22,27.162,225.249,25.424,227.534,25.424Z" transform="translate(-109.696 -10.924)" fill="#ea4335"/>
</svg>
