<svg id="Group_812" data-name="Group 812" xmlns="http://www.w3.org/2000/svg" xmlns:xlink="http://www.w3.org/1999/xlink" width="364.263" height="106.302" viewBox="0 0 364.263 106.302">
  <defs>
    <linearGradient id="linear-gradient" x1="0.828" y1="-0.218" x2="0.223" y2="0.727" gradientUnits="objectBoundingBox">
      <stop offset="0" stop-color="#bd82ff"/>
      <stop offset="0.549" stop-color="#6928f8"/>
      <stop offset="1" stop-color="#4804ae"/>
      <stop offset="1" stop-color="#4601a7"/>
    </linearGradient>
    <linearGradient id="linear-gradient-2" y1="1" x2="0.556" y2="0.696" gradientUnits="objectBoundingBox">
      <stop offset="0" stop-color="#ffe84d"/>
      <stop offset="1" stop-color="#ffb800"/>
    </linearGradient>
    <linearGradient id="linear-gradient-3" y1="1" x2="0.603" y2="0.67" gradientUnits="objectBoundingBox">
      <stop offset="0" stop-color="#ff6e99"/>
      <stop offset="0.441" stop-color="#ff427a"/>
      <stop offset="0.742" stop-color="#f41e5e"/>
      <stop offset="1" stop-color="#de0041"/>
    </linearGradient>
    <linearGradient id="linear-gradient-4" y1="1" x2="0.366" y2="0.851" gradientUnits="objectBoundingBox">
      <stop offset="0" stop-color="#ff9c00"/>
      <stop offset="1" stop-color="#ff7100"/>
    </linearGradient>
    <linearGradient id="linear-gradient-5" x1="0.599" y1="1" x2="0.204" y2="0.66" gradientUnits="objectBoundingBox">
      <stop offset="0" stop-color="#ff7100"/>
      <stop offset="0.644" stop-color="#ff8f00"/>
      <stop offset="1" stop-color="#ff9c00"/>
    </linearGradient>
    <clipPath id="clip-path">
      <path id="Mask" d="M.06,54.935.388,53.71a2.965,2.965,0,0,1,.065-.3L6.318,31.569h0L14.2,2.149A2.9,2.9,0,0,1,17,0H43.469a1.74,1.74,0,0,1,1.68,2.193L37.22,31.556,63.2,31.545a1.74,1.74,0,0,1,1.681,2.191l-5.69,21.175a2.9,2.9,0,0,1-2.8,2.147H30.334l-28.59.067h0A1.74,1.74,0,0,1,.06,54.935Z" transform="translate(0)" stroke="#f1f1f1" stroke-linecap="round" stroke-miterlimit="10" stroke-width="4.9" fill="url(#linear-gradient)"/>
    </clipPath>
    <linearGradient id="linear-gradient-7" x1="0.678" y1="0.06" x2="0.295" y2="0.5" gradientUnits="objectBoundingBox">
      <stop offset="0" stop-color="#6a29f5"/>
      <stop offset="1" stop-color="#a073ff"/>
    </linearGradient>
  </defs>
  <rect id="Rectangle_1" data-name="Rectangle 1" width="364.263" height="106.302" fill="#fff"/>
  <g id="Group_15" data-name="Group 15" transform="translate(7.347 5.056)">
    <g id="Group_13" data-name="Group 13" transform="translate(0 0)">
      <path id="Path_2_Copy_9" data-name="Path 2 Copy 9" d="M13.678,0,.017,55.892a.58.58,0,0,0,.8.665L36.03,40.473Z" transform="translate(40.03 0) rotate(45)" fill="url(#linear-gradient-2)"/>
      <path id="Path_2_Copy_10" data-name="Path 2 Copy 10" d="M21.617,0,.02,80.3a.58.58,0,0,0,.737.7L65.488,60.2,36.5,36.376Z" transform="translate(26.606 11.363)" fill="url(#linear-gradient-3)"/>
      <path id="Path_2_Copy_11" data-name="Path 2 Copy 11" d="M19.816,0,.022,70.461a.58.58,0,0,0,.767.7L53.283,50.95Z" transform="translate(29.723 4.262) rotate(21)" fill="url(#linear-gradient-4)"/>
      <path id="Path_5_Copy_4" data-name="Path 5 Copy 4" d="M0,36.732,15.974,42.3,27.324,0Z" transform="translate(20.899 11.363)" fill="url(#linear-gradient-5)"/>
    </g>
    <g id="Combined_Shape_Copy_7" data-name="Combined Shape Copy 7" transform="translate(33.877 12.024)">
      <g id="Mask-2" data-name="Mask" transform="translate(0 0)" stroke-linecap="round" stroke-miterlimit="10" fill="url(#linear-gradient)">
        <path d="M 1.740259885787964 59.57424545288086 C 0.4277043640613556 59.57424545288086 -0.7834956645965576 58.97705459594727 -1.582762360572815 57.93581008911133 C -2.382173538208008 56.89439010620117 -2.64600682258606 55.56964492797852 -2.306628942489624 54.30125427246094 L -2.006170272827148 53.17996597290039 C -1.980456471443176 53.04273986816406 -1.949268817901611 52.90564346313477 -1.913051247596741 52.77077865600586 L 3.952115535736084 30.9337215423584 L 4.439471244812012 29.11924362182617 L 4.441010475158691 29.11924362182617 L 11.83780479431152 1.514588952064514 C 12.46249294281006 -0.8194221258163452 14.587327003479 -2.449999809265137 17.00482749938965 -2.449999809265137 L 43.46882629394531 -2.449999809265137 C 44.78313827514648 -2.449999809265137 45.9953727722168 -1.851522088050842 46.79468154907227 -0.8080220818519592 C 47.59404754638672 0.2355445623397827 47.85617065429688 1.561911225318909 47.51383590698242 2.830989122390747 L 40.41968154907227 29.10456657409668 L 63.20235061645508 29.09475517272949 C 64.51752471923828 29.09475517272949 65.72917175292969 29.69241142272949 66.52849578857422 30.73446655273438 C 67.32798004150391 31.77675628662109 67.59128570556641 33.10221099853516 67.25084686279297 34.37097930908203 L 61.56012725830078 55.54642105102539 C 60.93368148803711 57.87863159179688 58.80929183959961 59.5076789855957 56.39409255981445 59.5076789855957 L 30.33519744873047 59.5076789855957 L 1.757802963256836 59.57420349121094 L 1.754193186759949 59.57423400878906 L 1.740259885787964 59.57424545288086 Z" stroke="none"/>
        <path d="M 1.744462132453918 57.12424087524414 L 30.33428192138672 57.05768203735352 L 56.39410400390625 57.05768203735352 C 57.70568084716797 57.05768203735352 58.85380172729492 56.17742156982422 59.1940803527832 54.91056060791016 L 64.88455963134766 33.73606109619141 C 65.18110656738281 32.63074493408203 64.34882354736328 31.54474258422852 63.2042236328125 31.54474258422852 C 63.20401382446289 31.54474258422852 63.20361328125 31.54474258422852 63.20340347290039 31.54474258422852 L 37.22004318237305 31.55594253540039 L 45.14838027954102 2.192902326583862 C 45.44660186767578 1.08740234375 44.61374282836914 2.344970653211931e-06 43.46882247924805 2.344970653211931e-06 L 17.00482177734375 2.344970653211931e-06 C 15.69216251373291 2.344970653211931e-06 14.54352188110352 0.8813223242759705 14.20432186126709 2.148702383041382 L 6.320941925048828 31.56924247741699 L 6.318262100219727 31.56924247741699 L 0.4531221389770508 53.40620422363281 C 0.4258821308612823 53.50760269165039 0.4043821394443512 53.60876083374023 0.3883221447467804 53.70966339111328 L 0.06012213602662086 54.93452072143555 C -0.2355978637933731 56.03974151611328 0.5969821214675903 57.12424087524414 1.740262150764465 57.12424087524414 C 1.74166214466095 57.12424087524414 1.743062138557434 57.12424087524414 1.744462132453918 57.12424087524414 M 1.750162124633789 62.02424240112305 L 1.740262150764465 62.02424240112305 C -0.3399578630924225 62.02424240112305 -2.259497880935669 61.07782363891602 -3.526197910308838 59.4276237487793 C -4.793037891387939 57.77726364135742 -5.21115779876709 55.67796325683594 -4.673357963562012 53.66800308227539 L -4.394620418548584 52.62768936157227 C -4.361371040344238 52.46223831176758 -4.32273530960083 52.29738998413086 -4.279098033905029 52.13494110107422 L 2.561070203781128 26.66924285888672 L 9.471302032470703 0.8804623484611511 C 10.38204193115234 -2.522417545318604 13.48008251190186 -4.899997711181641 17.00482177734375 -4.899997711181641 L 43.46882247924805 -4.899997711181641 C 45.55180358886719 -4.899997711181641 47.47296142578125 -3.951537609100342 48.73968124389648 -2.297817707061768 C 50.00644302368164 -0.6440576314926147 50.42180252075195 1.457922339439392 49.8792610168457 3.469102382659912 L 43.61930847167969 26.65318298339844 L 63.2012825012207 26.64474296569824 C 65.2855224609375 26.64474296569824 67.20570373535156 27.59186172485352 68.47244262695312 29.24322319030762 C 69.73936462402344 30.89482307434082 70.15660095214844 32.99520111083984 69.61720275878906 35.00576400756836 L 63.92618179321289 56.18228149414062 C 63.01288223266602 59.58250045776367 59.91550064086914 61.95768356323242 56.39410400390625 61.95768356323242 L 30.33709144592285 61.95768356323242 L 1.750162124633789 62.02424240112305 Z" stroke="none" fill="#fff"/>
      </g>
      <g id="Combined_Shape_Copy_7-2" data-name="Combined Shape Copy 7" transform="translate(0 0)" clip-path="url(#clip-path)">
        <path id="Path" d="M.017,57.067a.009.009,0,0,0-.007-.009h0A.009.009,0,0,1,0,57.048L6.846,31.569,15.308,0,34.9.046A8.7,8.7,0,0,1,43.277,11l-5.53,20.553-6.886,25.5L0,57.13Z" transform="translate(76.553 57.13) rotate(180)" fill="url(#linear-gradient-7)"/>
      </g>
    </g>
  </g>
  <path id="Path-2" data-name="Path" d="M24.652,34.791a1.192,1.192,0,0,0,1.243-1.243h0V27.833a1.235,1.235,0,0,0-.348-.87,1.169,1.169,0,0,0-.895-.373H8.946V1.243A1.169,1.169,0,0,0,8.574.348,1.235,1.235,0,0,0,7.7,0H1.243a1.235,1.235,0,0,0-.87.348A1.169,1.169,0,0,0,0,1.243H0V33.6a1.113,1.113,0,0,0,.373.845,1.235,1.235,0,0,0,.87.348H24.652Z" transform="translate(130.604 31.255)" fill="#1b0345"/>
  <path id="Path-3" data-name="Path" d="M13.618,26.093a13.488,13.488,0,0,0,9.642-3.777,12.205,12.205,0,0,0,3.976-9.195A12.418,12.418,0,0,0,23.26,3.827,13.393,13.393,0,0,0,13.618,0,13.393,13.393,0,0,0,3.976,3.827,12.418,12.418,0,0,0,0,13.121a12.205,12.205,0,0,0,3.976,9.195A13.488,13.488,0,0,0,13.618,26.093Z" transform="translate(157.691 40.699)" fill="#1b0345"/>
  <path id="Path-4" data-name="Path" d="M4.97,10.089A4.758,4.758,0,0,1,1.441,8.623,4.882,4.882,0,0,1,0,5.07,4.966,4.966,0,0,1,1.441,1.491,4.719,4.719,0,0,1,4.97,0,4.719,4.719,0,0,1,8.5,1.491,4.966,4.966,0,0,1,9.94,5.07,4.882,4.882,0,0,1,8.5,8.623,4.758,4.758,0,0,1,4.97,10.089Z" transform="translate(166.339 48.701)" fill="#fff"/>
  <path id="Path-5" data-name="Path" d="M13.072,32.455a13.025,13.025,0,0,0,4.5-.77,7.886,7.886,0,0,0,3.355-2.212,1.468,1.468,0,0,0,.149-2.038h0l-2.137-3.429q-.746-1.193-2.237-.249a3.791,3.791,0,0,1-1.988.7q-1.938,0-1.938-2.286h0V14.314h6.66a1.188,1.188,0,0,0,1.193-1.193h0V8.35a1.07,1.07,0,0,0-.348-.82,1.2,1.2,0,0,0-.845-.323h-6.66V1.143A1.105,1.105,0,0,0,11.63,0H5.368a1.2,1.2,0,0,0-.845.323,1.07,1.07,0,0,0-.348.82h0V7.207H1.143A1.105,1.105,0,0,0,0,8.35H0v4.771a1.2,1.2,0,0,0,.323.845,1.07,1.07,0,0,0,.82.348H4.175V24.3a7.31,7.31,0,0,0,2.584,6.113A9.88,9.88,0,0,0,13.072,32.455Z" transform="translate(185.823 34.238)" fill="#1b0345"/>
  <path id="Path-6" data-name="Path" d="M13.072,32.455a13.025,13.025,0,0,0,4.5-.77,7.886,7.886,0,0,0,3.355-2.212,1.468,1.468,0,0,0,.149-2.038h0l-2.137-3.429q-.746-1.193-2.237-.249a3.791,3.791,0,0,1-1.988.7q-1.938,0-1.938-2.286h0V14.314h6.66a1.188,1.188,0,0,0,1.193-1.193h0V8.35a1.07,1.07,0,0,0-.348-.82,1.2,1.2,0,0,0-.845-.323h-6.66V1.143A1.105,1.105,0,0,0,11.63,0H5.368a1.2,1.2,0,0,0-.845.323,1.07,1.07,0,0,0-.348.82h0V7.207H1.143A1.105,1.105,0,0,0,0,8.35H0v4.771a1.2,1.2,0,0,0,.323.845,1.07,1.07,0,0,0,.82.348H4.175V24.3a7.31,7.31,0,0,0,2.584,6.113A9.88,9.88,0,0,0,13.072,32.455Z" transform="translate(207.294 34.238)" fill="#1b0345"/>
  <path id="Path-7" data-name="Path" d="M13.618,26.093a13.488,13.488,0,0,0,9.642-3.777,12.205,12.205,0,0,0,3.976-9.195A12.418,12.418,0,0,0,23.26,3.827,13.393,13.393,0,0,0,13.618,0,13.393,13.393,0,0,0,3.976,3.827,12.418,12.418,0,0,0,0,13.121a12.205,12.205,0,0,0,3.976,9.195A13.488,13.488,0,0,0,13.618,26.093Z" transform="translate(229.361 40.699)" fill="#1b0345"/>
  <path id="Path-8" data-name="Path" d="M4.97,10.089A4.758,4.758,0,0,1,1.441,8.623,4.882,4.882,0,0,1,0,5.07,4.966,4.966,0,0,1,1.441,1.491,4.719,4.719,0,0,1,4.97,0,4.719,4.719,0,0,1,8.5,1.491,4.966,4.966,0,0,1,9.94,5.07,4.882,4.882,0,0,1,8.5,8.623,4.758,4.758,0,0,1,4.97,10.089Z" transform="translate(238.009 48.701)" fill="#fff"/>
  <path id="Path-9" data-name="Path" d="M10.736,34.791q1.59,0,1.59-1.491h0V28.777a.966.966,0,0,0-1.093-1.093H9.543a.875.875,0,0,1-.671-.3,1,1,0,0,1-.273-.7h0V1.193A1.2,1.2,0,0,0,8.275.348,1.07,1.07,0,0,0,7.455,0H1.193A1.15,1.15,0,0,0,.348.348,1.15,1.15,0,0,0,0,1.193H0V28.529a6.5,6.5,0,0,0,1.566,4.523q1.566,1.74,5.094,1.74h4.076Z" transform="translate(258.934 31.255)" fill="#1b0345"/>
  <path id="Path-10" data-name="Path" d="M12.276,26.093a9.854,9.854,0,0,0,3.852-.721,5.43,5.43,0,0,0,2.51-1.914h0V24.2a1.105,1.105,0,0,0,1.143,1.143h6.213A1.105,1.105,0,0,0,27.137,24.2h0V1.889A1.105,1.105,0,0,0,25.994.746H19.781a1.136,1.136,0,0,0-.8.323,1.07,1.07,0,0,0-.348.82h0v.746Q16.849,0,12.326,0A12,12,0,0,0,3.678,3.579,12.515,12.515,0,0,0,0,12.972a12.847,12.847,0,0,0,3.678,9.493A11.859,11.859,0,0,0,12.276,26.093Z" transform="translate(272.403 40.699)" fill="#1b0345"/>
  <path id="Path-11" data-name="Path" d="M4.97,10.139A4.719,4.719,0,0,1,1.441,8.648,4.966,4.966,0,0,1,0,5.07,4.966,4.966,0,0,1,1.441,1.491,4.719,4.719,0,0,1,4.97,0,4.719,4.719,0,0,1,8.5,1.491,4.966,4.966,0,0,1,9.94,5.07,4.966,4.966,0,0,1,8.5,8.648,4.719,4.719,0,0,1,4.97,10.139Z" transform="translate(281.051 48.701)" fill="#fff"/>
  <path id="Path-12" data-name="Path" d="M12.276,35.537q4.225,0,6.362-2.634h0v.746a1.105,1.105,0,0,0,1.143,1.143h6.213a1.105,1.105,0,0,0,1.143-1.143h0V1.143A1.105,1.105,0,0,0,25.994,0H19.682a1.136,1.136,0,0,0-.8.323,1.07,1.07,0,0,0-.348.82h0V11.928A6,6,0,0,0,16,10.139a10.114,10.114,0,0,0-3.877-.7,11.718,11.718,0,0,0-8.5,3.579A12.607,12.607,0,0,0,0,22.415a12.847,12.847,0,0,0,3.678,9.493A11.859,11.859,0,0,0,12.276,35.537Z" transform="translate(302.075 31.255)" fill="#1b0345"/>
  <path id="Path-13" data-name="Path" d="M4.97,10.139A4.719,4.719,0,0,1,1.441,8.648,4.966,4.966,0,0,1,0,5.07,4.966,4.966,0,0,1,1.441,1.491,4.719,4.719,0,0,1,4.97,0,4.719,4.719,0,0,1,8.5,1.491,4.966,4.966,0,0,1,9.94,5.07,4.966,4.966,0,0,1,8.5,8.648,4.719,4.719,0,0,1,4.97,10.139Z" transform="translate(310.723 48.701)" fill="#fff"/>
  <path id="Path-14" data-name="Path" d="M11.733,26.093q5.268,0,8.325-2.46a7.624,7.624,0,0,0,3.057-6.188q0-6.014-7.8-7.6h0L11.683,9.1Q9.347,8.648,9.347,7.654a.9.9,0,0,1,.621-.8,3.614,3.614,0,0,1,1.566-.3A11,11,0,0,1,16.8,8.3a2,2,0,0,0,2.684-.149h0l2.286-2.485a1.565,1.565,0,0,0-.1-2.535A12.464,12.464,0,0,0,17.622.969,18.636,18.636,0,0,0,11.335,0,12.133,12.133,0,0,0,3.408,2.386,7.362,7.362,0,0,0,.5,8.3q0,5.865,6.759,7.356h0l4.175.895a8.037,8.037,0,0,1,2.212.671,1.133,1.133,0,0,1,.671,1.019,1.1,1.1,0,0,1-.646.895,3.3,3.3,0,0,1-1.74.4A8.509,8.509,0,0,1,6.464,17.3a2.018,2.018,0,0,0-2.783-.149h0L.848,19.235A1.6,1.6,0,0,0,.1,21.223a5.19,5.19,0,0,0,2.386,2.485A17.293,17.293,0,0,0,11.733,26.093Z" transform="translate(331.644 40.699)" fill="#1b0345"/>
</svg>
