<svg id="Group_812" data-name="Group 812" xmlns="http://www.w3.org/2000/svg" xmlns:xlink="http://www.w3.org/1999/xlink" viewBox="0 0 347.17 85.27"><defs><style>.cls-1{fill:none;}.cls-2{fill:url(#linear-gradient);}.cls-3{fill:url(#linear-gradient-2);}.cls-4{fill:url(#linear-gradient-3);}.cls-5{fill:url(#linear-gradient-4);}.cls-6{fill:url(#linear-gradient-5);}.cls-7{fill:#fff;}.cls-8{clip-path:url(#clip-path);}.cls-9{fill:url(#linear-gradient-6);}.cls-10{fill:#1b0345;}</style><linearGradient id="linear-gradient" x1="-519.29" y1="480.28" x2="-518.74" y2="480.58" gradientTransform="matrix(25.48, 25.48, 40.03, -40.03, -5981.87, 32487.98)" gradientUnits="userSpaceOnUse"><stop offset="0" stop-color="#ffe84d"/><stop offset="1" stop-color="#ffb800"/></linearGradient><linearGradient id="linear-gradient-2" x1="-528.91" y1="473.62" x2="-528.31" y2="473.95" gradientTransform="matrix(65.49, 0, 0, -81.03, 34663.57, 38457.52)" gradientUnits="userSpaceOnUse"><stop offset="0" stop-color="#ff6e99"/><stop offset="0.44" stop-color="#ff427a"/><stop offset="0.74" stop-color="#f41e5e"/><stop offset="1" stop-color="#de0041"/></linearGradient><linearGradient id="linear-gradient-3" x1="-525.22" y1="476.15" x2="-524.86" y2="476.3" gradientTransform="matrix(49.74, 19.1, 25.52, -66.47, 13990.7, 41731.96)" gradientUnits="userSpaceOnUse"><stop offset="0" stop-color="#ff9c00"/><stop offset="1" stop-color="#ff7100"/></linearGradient><linearGradient id="linear-gradient-4" x1="-516.51" y1="469.51" x2="-516.91" y2="469.85" gradientTransform="matrix(27.32, 0, 0, -42.3, 14164.23, 19907.12)" gradientUnits="userSpaceOnUse"><stop offset="0" stop-color="#ff7100"/><stop offset="0.64" stop-color="#ff8f00"/><stop offset="1" stop-color="#ff9c00"/></linearGradient><linearGradient id="linear-gradient-5" x1="-528.35" y1="473.15" x2="-528.95" y2="472.2" gradientTransform="matrix(69.85, 0, 0, -62.02, 37010.01, 29353.24)" gradientUnits="userSpaceOnUse"><stop offset="0" stop-color="#bd82ff"/><stop offset="0.55" stop-color="#6928f8"/><stop offset="1" stop-color="#4804ae"/><stop offset="1" stop-color="#4601a7"/></linearGradient><clipPath id="clip-path" transform="translate(-7.59 -12.18)"><path class="cls-1" d="M41.28,72l.33-1.23c0-.1,0-.2.07-.3l5.86-21.84h0l7.88-29.42a2.9,2.9,0,0,1,2.8-2.15H84.69a1.74,1.74,0,0,1,1.74,1.74,1.68,1.68,0,0,1-.06.45L78.44,48.64h26a1.73,1.73,0,0,1,1.74,1.73,2.31,2.31,0,0,1,0,.46L100.42,72a2.91,2.91,0,0,1-2.8,2.15H71.56L43,74.21h0a1.76,1.76,0,0,1-1.75-1.74A1.68,1.68,0,0,1,41.28,72Z"/></clipPath><linearGradient id="linear-gradient-6" x1="-548.51" y1="485.32" x2="-548.9" y2="484.88" gradientTransform="matrix(-43.57, 0, 0, 57.13, -23818.53, -27662.06)" gradientUnits="userSpaceOnUse"><stop offset="0" stop-color="#6a29f5"/><stop offset="1" stop-color="#a073ff"/></linearGradient></defs><g id="Group_15" data-name="Group 15"><g id="Group_13" data-name="Group 13"><path id="Path_2_Copy_9" data-name="Path 2 Copy 9" class="cls-2" d="M57.05,14.73,7.87,44.59a.57.57,0,0,0-.19.8.55.55,0,0,0,.28.24L44.24,59.15Z" transform="translate(-7.59 -12.18)"/><path id="Path_2_Copy_10" data-name="Path 2 Copy 10" class="cls-3" d="M55.57,16.42,34,96.72a.58.58,0,0,0,.74.7l64.73-20.8-29-23.83Z" transform="translate(-7.59 -12.18)"/><path id="Path_2_Copy_11" data-name="Path 2 Copy 11" class="cls-4" d="M55.57,16.42,11.84,75.11a.58.58,0,0,0,.11.81.67.67,0,0,0,.35.12L68.56,76Z" transform="translate(-7.59 -12.18)"/><path id="Path_5_Copy_4" data-name="Path 5 Copy 4" class="cls-5" d="M28.25,53.15l16,5.57,11.35-42.3Z" transform="translate(-7.59 -12.18)"/></g><g id="Combined_Shape_Copy_7" data-name="Combined Shape Copy 7"><g id="Mask-2"><path class="cls-6" d="M43,76.65a4.18,4.18,0,0,1-4-5.27l.3-1.12a3,3,0,0,1,.09-.41L45.18,48l.48-1.81h0l7.39-27.61a5.36,5.36,0,0,1,5.17-4H84.69a4.19,4.19,0,0,1,4,5.28l-7.1,26.27h22.79a4.19,4.19,0,0,1,4,5.28l-5.69,21.18a5.35,5.35,0,0,1-5.16,4H71.56L43,76.65h0Z" transform="translate(-7.59 -12.18)"/><path class="cls-7" d="M43,74.2l28.59-.06H97.62a2.9,2.9,0,0,0,2.8-2.15l5.69-21.17a1.75,1.75,0,0,0-1.68-2.2h0l-26,0,7.93-29.37a1.74,1.74,0,0,0-1.68-2.19H58.23a2.9,2.9,0,0,0-2.8,2.15L47.54,48.65h0L41.68,70.49c0,.1,0,.2-.07.3L41.28,72A1.74,1.74,0,0,0,43,74.2h0m0,4.9h0a6.63,6.63,0,0,1-6.41-8.35l.28-1c0-.17.07-.33.11-.5l6.85-25.46L50.7,18a7.8,7.8,0,0,1,7.53-5.78H84.69a6.64,6.64,0,0,1,6.41,8.37L84.84,43.73h19.59a6.64,6.64,0,0,1,6.41,8.37l-5.69,21.17A7.81,7.81,0,0,1,97.62,79H71.56Z" transform="translate(-7.59 -12.18)"/></g><g class="cls-8"><g id="Combined_Shape_Copy_7-2" data-name="Combined Shape Copy 7-2"><path id="Path" class="cls-9" d="M117.76,17.14h0a0,0,0,0,1,0,0h0l-6.85,25.48-8.46,31.57-19.59,0a8.7,8.7,0,0,1-8.68-8.72,9.35,9.35,0,0,1,.3-2.23L80,42.66l6.89-25.5,30.86-.08Z" transform="translate(-7.59 -12.18)"/></g></g></g></g><path id="Path-2" class="cls-10" d="M155.26,66.05a1.21,1.21,0,0,0,1.24-1.14V64.8h0V59.09a1.22,1.22,0,0,0-.35-.87,1.17,1.17,0,0,0-.89-.38H139.55V32.5a1.17,1.17,0,0,0-.37-.9,1.3,1.3,0,0,0-.88-.35h-6.45a1.26,1.26,0,0,0-.87.35,1.18,1.18,0,0,0-.38.9h0V64.85a1.13,1.13,0,0,0,.38.85,1.22,1.22,0,0,0,.87.35Z" transform="translate(-7.59 -12.18)"/><path id="Path-3" class="cls-10" d="M171.31,66.79A13.45,13.45,0,0,0,181,63a12.24,12.24,0,0,0,4-9.2,12.43,12.43,0,0,0-4-9.29,14,14,0,0,0-19.28,0,12.4,12.4,0,0,0-4,9.29,12.24,12.24,0,0,0,4,9.2A13.45,13.45,0,0,0,171.31,66.79Z" transform="translate(-7.59 -12.18)"/><path id="Path-4" class="cls-7" d="M171.31,58.79a4.75,4.75,0,0,1-3.53-1.47,4.86,4.86,0,0,1-1.44-3.55,5,5,0,0,1,1.44-3.58,4.93,4.93,0,0,1,7.06,0,5,5,0,0,1,1.44,3.58,4.9,4.9,0,0,1-1.44,3.55A4.75,4.75,0,0,1,171.31,58.79Z" transform="translate(-7.59 -12.18)"/><path id="Path-5" class="cls-10" d="M198.89,66.69a13,13,0,0,0,4.5-.77,7.76,7.76,0,0,0,3.36-2.21,1.47,1.47,0,0,0,.15-2h0l-2.14-3.43c-.5-.79-1.24-.87-2.24-.25a3.74,3.74,0,0,1-2,.7c-1.3,0-1.94-.76-1.94-2.28h0V48.55h6.66a1.18,1.18,0,0,0,1.19-1.18h0V42.59a1.07,1.07,0,0,0-.35-.82,1.19,1.19,0,0,0-.84-.33H198.6V35.38a1.11,1.11,0,0,0-1.07-1.14h-6.34a1.18,1.18,0,0,0-.84.32,1.07,1.07,0,0,0-.35.82h0v6.06h-3a1.11,1.11,0,0,0-1.15,1.07v.08h0v4.77a1.19,1.19,0,0,0,.33.84,1.07,1.07,0,0,0,.82.35h3v10a7.3,7.3,0,0,0,2.58,6.11A9.86,9.86,0,0,0,198.89,66.69Z" transform="translate(-7.59 -12.18)"/><path id="Path-6" class="cls-10" d="M220.37,66.69a13.06,13.06,0,0,0,4.5-.77,7.78,7.78,0,0,0,3.35-2.21,1.47,1.47,0,0,0,.15-2h0l-2.14-3.43c-.49-.79-1.24-.87-2.23-.25a3.8,3.8,0,0,1-2,.7c-1.29,0-1.94-.76-1.94-2.28h0V48.55h6.66a1.18,1.18,0,0,0,1.19-1.18h0V42.59a1.09,1.09,0,0,0-.34-.82,1.23,1.23,0,0,0-.85-.33h-6.66V35.38A1.11,1.11,0,0,0,219,34.24h-6.34a1.19,1.19,0,0,0-.84.32,1.07,1.07,0,0,0-.35.82h0v6.06h-3a1.12,1.12,0,0,0-1.15,1.07v.08h0v4.77a1.19,1.19,0,0,0,.33.84,1.07,1.07,0,0,0,.82.35h3v10a7.3,7.3,0,0,0,2.58,6.11A9.87,9.87,0,0,0,220.37,66.69Z" transform="translate(-7.59 -12.18)"/><path id="Path-7" class="cls-10" d="M243,66.79A13.45,13.45,0,0,0,252.62,63a12.24,12.24,0,0,0,4-9.2,12.43,12.43,0,0,0-4-9.29,14,14,0,0,0-19.28,0,12.4,12.4,0,0,0-4,9.29,12.24,12.24,0,0,0,4,9.2A13.45,13.45,0,0,0,243,66.79Z" transform="translate(-7.59 -12.18)"/><path id="Path-8" class="cls-7" d="M243,58.79a4.75,4.75,0,0,1-3.53-1.47A4.86,4.86,0,0,1,238,53.77a5,5,0,0,1,1.44-3.58,4.93,4.93,0,0,1,7.06,0A5,5,0,0,1,248,53.77a4.9,4.9,0,0,1-1.44,3.55A4.75,4.75,0,0,1,243,58.79Z" transform="translate(-7.59 -12.18)"/><path id="Path-9" class="cls-10" d="M269.67,66.05q1.59,0,1.59-1.5h0V60a1,1,0,0,0-.82-1.09h-2a.88.88,0,0,1-.67-.3,1,1,0,0,1-.28-.7h0V32.45a1.2,1.2,0,0,0-.32-.85,1.1,1.1,0,0,0-.82-.35h-6.26a1.21,1.21,0,0,0-.85.35,1.17,1.17,0,0,0-.35.85h0V59.78a6.52,6.52,0,0,0,1.57,4.53q1.56,1.74,5.09,1.74Z" transform="translate(-7.59 -12.18)"/><path id="Path-10" class="cls-10" d="M284.68,66.79a9.76,9.76,0,0,0,3.85-.72A5.4,5.4,0,0,0,291,64.16h0v.74A1.11,1.11,0,0,0,292.11,66h6.29A1.1,1.1,0,0,0,299.54,65V64.9h0V42.59a1.11,1.11,0,0,0-1.07-1.14.09.09,0,0,0-.07,0h-6.22a1.12,1.12,0,0,0-.8.32,1.06,1.06,0,0,0-.34.82h0v.74c-1.19-1.75-3.3-2.63-6.31-2.63a12,12,0,0,0-8.65,3.58,12.52,12.52,0,0,0-3.68,9.39,12.85,12.85,0,0,0,3.68,9.49A11.83,11.83,0,0,0,284.68,66.79Z" transform="translate(-7.59 -12.18)"/><path id="Path-11" class="cls-7" d="M286,58.84a4.75,4.75,0,0,1-3.53-1.49,5.17,5.17,0,0,1,0-7.16,4.93,4.93,0,0,1,7.06,0,5.17,5.17,0,0,1,0,7.16A4.74,4.74,0,0,1,286,58.84Z" transform="translate(-7.59 -12.18)"/><path id="Path-12" class="cls-10" d="M314.35,66.79q4.23,0,6.36-2.63h0v.74a1.11,1.11,0,0,0,1.07,1.15h6.29A1.11,1.11,0,0,0,329.21,65V64.9h0V32.4a1.11,1.11,0,0,0-1.06-1.15h-6.39a1.14,1.14,0,0,0-.8.33,1.07,1.07,0,0,0-.35.82h0V43.18a6,6,0,0,0-2.53-1.79,10.33,10.33,0,0,0-3.88-.7,11.71,11.71,0,0,0-8.5,3.58,12.59,12.59,0,0,0-3.62,9.4,12.8,12.8,0,0,0,3.67,9.49A11.83,11.83,0,0,0,314.35,66.79Z" transform="translate(-7.59 -12.18)"/><path id="Path-13" class="cls-7" d="M315.69,58.84a4.77,4.77,0,0,1-3.53-1.49,5.17,5.17,0,0,1,0-7.16,4.93,4.93,0,0,1,7.06,0,5.17,5.17,0,0,1,0,7.16A4.74,4.74,0,0,1,315.69,58.84Z" transform="translate(-7.59 -12.18)"/><path id="Path-14" class="cls-10" d="M343.38,66.79q5.26,0,8.32-2.46a7.59,7.59,0,0,0,3.06-6.19q0-6-7.8-7.6h0l-3.63-.74c-1.56-.3-2.34-.78-2.34-1.45a.9.9,0,0,1,.62-.8,3.85,3.85,0,0,1,1.57-.3A11.08,11.08,0,0,1,348.44,49a2,2,0,0,0,2.69-.15h0l2.28-2.48a1.57,1.57,0,0,0,.27-2.2,1.5,1.5,0,0,0-.37-.34,12.23,12.23,0,0,0-4-2.16,18.71,18.71,0,0,0-6.29-1,12.08,12.08,0,0,0-7.93,2.39A7.39,7.39,0,0,0,332.14,49q0,5.86,6.76,7.36h0l4.18.89a8.18,8.18,0,0,1,2.21.67,1.15,1.15,0,0,1,.67,1,1.12,1.12,0,0,1-.64.9,3.43,3.43,0,0,1-1.74.4A8.52,8.52,0,0,1,338.11,58a2,2,0,0,0-2.78-.15h0l-2.84,2.08a1.61,1.61,0,0,0-.75,2,5.2,5.2,0,0,0,2.39,2.49A17.35,17.35,0,0,0,343.38,66.79Z" transform="translate(-7.59 -12.18)"/></svg>