<svg xmlns="http://www.w3.org/2000/svg" width="34.329" height="21.22" viewBox="0 0 34.329 21.22">
  <g id="Group_898" data-name="Group 898" transform="translate(-2.181 -2.189)">
    <rect id="Rectangle" width="10.21" height="16.68" transform="translate(14.25 4.46)" fill="#f26122"/>
    <path id="Path" d="M13.169,10.61a10.58,10.58,0,0,1,4-8.34,10.61,10.61,0,1,0,0,16.68A10.58,10.58,0,0,1,13.169,10.61Z" transform="translate(2.181 2.189)" fill="#ea1d25"/>
    <path id="Shape" d="M.5.411H.43V0h.1L.66.29.78,0h.1V.409H.81V.1L.7.37H.62L.5.1V.41ZM.2.41H.14V.07H0V0H.35V.07H.2V.409Z" transform="translate(35.29 18.96)" fill="#f69e1e"/>
    <path id="Path-2" data-name="Path" d="M17.16,10.6A10.61,10.61,0,0,1,0,18.943,10.61,10.61,0,0,0,1.78,4.053,10.4,10.4,0,0,0,0,2.263,10.61,10.61,0,0,1,17.16,10.6Z" transform="translate(19.35 2.196)" fill="#f69e1e"/>
  </g>
</svg>
