<svg id="magic_mil2" xmlns="http://www.w3.org/2000/svg" xmlns:xlink="http://www.w3.org/1999/xlink" width="62.32" height="63.566" viewBox="0 0 62.32 63.566">
  <defs>
    <clipPath id="clip-path">
      <ellipse id="Mask" cx="7.011" cy="7.011" rx="7.011" ry="7.011" fill="#ececec"/>
    </clipPath>
    <clipPath id="clip-path-2">
      <ellipse id="Mask-2" data-name="Mask" cx="6.388" cy="6.388" rx="6.388" ry="6.388" fill="#ececec"/>
    </clipPath>
  </defs>
  <g id="Group_16" data-name="Group 16">
    <path id="Oval" d="M31.16,0A31.16,31.16,0,1,1,0,31.16,31.16,31.16,0,0,1,31.16,0Z" fill="#6a48ef"/>
    <path id="Star" d="M37.005,61.978l-8.085,5.2-4.4-8.547-9.6.462.462-9.6-8.547-4.4,5.2-8.085-5.2-8.085,8.547-4.4-.462-9.6,9.6.462,4.4-8.547,8.085,5.2,8.085-5.2,4.4,8.547,9.6-.462-.462,9.6,8.547,4.4-5.2,8.085,5.2,8.085-8.547,4.4.462,9.6-9.6-.462-4.4,8.547Z" transform="translate(-5.767 -5.767)" fill="#fff" opacity="0.236"/>
    <path id="Star-2" data-name="Star" d="M24.079,44.007l-6.452,4.15-3.512-6.82-7.663.368.368-7.663L0,30.53l4.15-6.452L0,17.627l6.82-3.512L6.452,6.452l7.663.368L17.627,0l6.452,4.15L30.53,0l3.512,6.82,7.663-.368-.368,7.663,6.82,3.512-4.15,6.452,4.15,6.452-6.82,3.512.368,7.663-7.663-.368-3.512,6.82Z" transform="matrix(0.966, -0.259, 0.259, 0.966, 1.748, 14.212)" fill="#fff" opacity="0.2"/>
    <path id="Star-3" data-name="Star" d="M18.661,34.105l-5,3.217-2.722-5.286L5,32.322l.285-5.939L0,23.661l3.217-5L0,13.661l5.286-2.722L5,5l5.939.285L13.661,0l5,3.217,5-3.217,2.722,5.286L32.322,5l-.285,5.939,5.286,2.722-3.217,5,3.217,5-5.286,2.722.285,5.939-5.939-.285-2.722,5.286Z" transform="matrix(0.875, -0.485, 0.485, 0.875, 6.403, 24.497)" fill="#fff" opacity="0.2"/>
    <path id="Star-4" data-name="Star" d="M14.748,26.954,10.8,29.5,8.645,25.319l-4.693.226.226-4.693L0,18.7l2.542-3.952L0,10.8,4.177,8.645,3.952,3.952l4.693.226L10.8,0l3.952,2.542L18.7,0l2.151,4.177,4.693-.226-.226,4.693L29.5,10.8l-2.542,3.952L29.5,18.7l-4.177,2.151.226,4.693-4.693-.226L18.7,29.5Z" transform="translate(13.893 21.029) rotate(-14)" fill="#fff" opacity="0.2"/>
    <path id="Star-5" data-name="Star" d="M14.4,24.111l-3.145,2.023L9.539,22.81l-3.736.18.18-3.736L2.658,17.541,4.681,14.4,2.658,11.251,5.983,9.539,5.8,5.8l3.736.18,1.712-3.325L14.4,4.681l3.145-2.023,1.712,3.325,3.736-.18-.18,3.736,3.325,1.712L24.111,14.4l2.023,3.145L22.81,19.254l.18,3.736-3.736-.18-1.712,3.325Z" transform="translate(17.375 17.375)" fill="#fff" opacity="0.2"/>
    <path id="Star-6" data-name="Star" d="M8.578,15.677l-2.3,1.479-1.251-2.43-2.73.131.131-2.73L0,10.876l1.479-2.3L0,6.28,2.43,5.028,2.3,2.3l2.73.131L6.28,0l2.3,1.479L10.876,0l1.251,2.43,2.73-.131-.131,2.73,2.43,1.251-1.479,2.3,1.479,2.3-2.43,1.251.131,2.73-2.73-.131-1.251,2.43Z" transform="matrix(0.966, 0.259, -0.259, 0.966, 25.705, 21.265)" fill="#fff" opacity="0.2"/>
    <path id="Star-7" data-name="Star" d="M6.622,12.1,4.847,13.243l-.966-1.876-2.107.1.1-2.107L0,8.4,1.141,6.622,0,4.847l1.876-.966-.1-2.107,2.107.1L4.847,0,6.622,1.141,8.4,0l.966,1.876,2.107-.1-.1,2.107,1.876.966L12.1,6.622,13.243,8.4l-1.876.966.1,2.107-2.107-.1L8.4,13.243Z" transform="translate(31.771 22.406) rotate(45)" fill="#fff" opacity="0.2"/>
    <path id="Star-8" data-name="Star" d="M24.079,44.007l-6.452,4.15-3.512-6.82-7.663.368.368-7.663L0,30.53l4.15-6.452L0,17.627l6.82-3.512L6.452,6.452l7.663.368L17.627,0l6.452,4.15L30.53,0l3.512,6.82,7.663-.368-.368,7.663,6.82,3.512-4.15,6.452,4.15,6.452-6.82,3.512.368,7.663-7.663-.368-3.512,6.82Z" transform="matrix(0.966, -0.259, 0.259, 0.966, 1.748, 14.212)" fill="#fff" opacity="0.261"/>
    <ellipse id="Oval-2" data-name="Oval" cx="24.928" cy="24.928" rx="24.928" ry="24.928" transform="translate(6.232 6.232)" fill="#fff" opacity="0.3"/>
    <ellipse id="Oval-3" data-name="Oval" cx="19.319" cy="19.319" rx="19.319" ry="19.319" transform="translate(11.841 11.841)" fill="#fff" opacity="0.5"/>
    <ellipse id="Oval-4" data-name="Oval" cx="15.268" cy="15.268" rx="15.268" ry="15.268" transform="translate(15.892 15.892)" fill="#fff" opacity="0.6"/>
    <g id="Bitmap" transform="translate(47.831 1.091)">
      <ellipse id="Mask-3" data-name="Mask" cx="7.011" cy="7.011" rx="7.011" ry="7.011" fill="#ececec"/>
      <g id="Bitmap-2" data-name="Bitmap" clip-path="url(#clip-path)">
        <rect id="Bitmap-3" data-name="Bitmap" width="89.585" height="41.754" transform="translate(-54.997 -4.207)" fill="#fff"/>
      </g>
    </g>
    <g id="Bitmap-4" data-name="Bitmap" transform="translate(6.699 50.791)">
      <ellipse id="Mask-4" data-name="Mask" cx="6.388" cy="6.388" rx="6.388" ry="6.388" fill="#ececec"/>
      <g id="Bitmap-5" data-name="Bitmap" clip-path="url(#clip-path-2)">
        <rect id="Bitmap-6" data-name="Bitmap" width="81.639" height="38.171" transform="translate(-3.116 -20.566)" fill="#fff"/>
      </g>
    </g>
    <path id="MEGA_MILLIONS" data-name="MEGA MILLIONS" d="M-26.011,0h4.473V-5.04l2.877,4.2,2.856-4.2V0h4.494V-14.007h-3.717l-3.633,5.334-3.654-5.334h-3.7ZM-9.93,0h8.4V-3.675H-5.457V-5.292H-1.74V-8.778H-5.457v-1.554h3.78v-3.675H-9.93ZM13.08-3.465V-8.127h-5.4v2.94h1.26a2.9,2.9,0,0,1-2.31,1.134,2.858,2.858,0,0,1-1.144-.231,2.972,2.972,0,0,1-.935-.63,2.972,2.972,0,0,1-.63-.935,2.858,2.858,0,0,1-.231-1.144,2.858,2.858,0,0,1,.231-1.145,2.972,2.972,0,0,1,.63-.934A2.941,2.941,0,0,1,5.5-9.7a2.934,2.934,0,0,1,1.155-.231,2.92,2.92,0,0,1,1.869.693l2.52-3.633q-.231-.168-.41-.283t-.315-.2q-.137-.084-.284-.157l-.315-.158a7.032,7.032,0,0,0-1.491-.494,7.577,7.577,0,0,0-1.617-.178,7.083,7.083,0,0,0-2.846.577,7.448,7.448,0,0,0-2.331,1.575A7.415,7.415,0,0,0-.139-9.849,7.157,7.157,0,0,0-.717-6.993,7.157,7.157,0,0,0-.139-4.137,7.415,7.415,0,0,0,1.436-1.8,7.415,7.415,0,0,0,3.777-.221,7.157,7.157,0,0,0,6.633.357a7.144,7.144,0,0,0,3.717-1A7.62,7.62,0,0,0,13.08-3.465ZM13.075,0h4.41l.462-1.26h4.242L22.651,0h4.41L21.748-14.007h-3.36Zm6.048-4.347L20.068-6.8l.945,2.457ZM-23.834,11h2.556V8.12l1.644,2.4L-18,8.12V11h2.568V3h-2.124l-2.076,3.048L-21.722,3h-2.112Zm9.189,0h2.712V3h-2.712Zm3.513,0H-6.26V8.924H-8.492V3h-2.64ZM-5.9,11h4.872V8.924H-3.263V3H-5.9Zm5.229,0H2.039V3H-.673ZM2.636,7a4.09,4.09,0,0,0,.33,1.632A4.2,4.2,0,0,0,5.2,10.874a4.2,4.2,0,0,0,3.264,0,4.2,4.2,0,0,0,2.238-2.238,4.215,4.215,0,0,0,0-3.27A4.214,4.214,0,0,0,8.468,3.134a4.2,4.2,0,0,0-3.264,0A4.214,4.214,0,0,0,2.966,5.366,4.077,4.077,0,0,0,2.636,7Zm2.52,0a1.633,1.633,0,0,1,.132-.654,1.686,1.686,0,0,1,.894-.894,1.686,1.686,0,0,1,1.308,0,1.685,1.685,0,0,1,.894.894,1.686,1.686,0,0,1,0,1.308,1.686,1.686,0,0,1-.894.894,1.686,1.686,0,0,1-1.308,0,1.686,1.686,0,0,1-.894-.894A1.633,1.633,0,0,1,5.156,7Zm6.477,4h2.52V7.928L16.349,11h2.124V3h-2.52V6.08L13.745,3H11.633Zm7.269-.084a6.9,6.9,0,0,0,1.008.18,9.683,9.683,0,0,0,1.044.06,4.167,4.167,0,0,0,2.388-.594,1.893,1.893,0,0,0,.864-1.65,2.524,2.524,0,0,0-.132-.762,3.285,3.285,0,0,0-.372-.786Q23.582,7.2,23.444,7t-.306-.414q-.168-.216-.294-.366t-.2-.246L22.5,5.756a.476.476,0,0,1-.06-.2.31.31,0,0,1,.156-.27.759.759,0,0,1,.42-.1q.06,0,.15.006t.21.006l.084.012V3.044a4.239,4.239,0,0,0-.732-.156,7.243,7.243,0,0,0-.888-.048,3.619,3.619,0,0,0-2.052.5,1.6,1.6,0,0,0-.732,1.4,2.3,2.3,0,0,0,.156.828,4.443,4.443,0,0,0,.516.924l.246.336q.15.2.354.492a6.306,6.306,0,0,1,.408.624.807.807,0,0,1,.108.372q0,.408-.756.408-.264,0-.612-.03A3.5,3.5,0,0,1,18.9,8.6Z" transform="translate(31.16 33.238)" fill="#161442"/>
  </g>
</svg>
