<svg id="powerball_sl" xmlns="http://www.w3.org/2000/svg" xmlns:xlink="http://www.w3.org/1999/xlink" width="125.115" height="125.115" viewBox="0 0 125.115 125.115">
  <defs>
    <linearGradient id="linear-gradient" x1="0.226" y1="0.09" x2="0.801" y2="0.897" gradientUnits="objectBoundingBox">
      <stop offset="0" stop-color="#e35e58"/>
      <stop offset="1" stop-color="#c2302d"/>
    </linearGradient>
    <clipPath id="clip-path">
      <ellipse id="Mask" cx="11.988" cy="11.988" rx="11.988" ry="11.988" fill="#ececec"/>
    </clipPath>
    <clipPath id="clip-path-2">
      <ellipse id="Mask-2" data-name="Mask" cx="10.922" cy="10.922" rx="10.922" ry="10.922" fill="#ececec"/>
    </clipPath>
  </defs>
  <g id="Group_16" data-name="Group 16" transform="translate(0 0)">
    <ellipse id="Oval" cx="53.28" cy="53.28" rx="53.28" ry="53.28" transform="translate(9.145 9.145)" fill="url(#linear-gradient)"/>
    <g id="Group_15" data-name="Group 15" transform="translate(0 0)">
      <path id="Star" d="M51.078,93.352l-13.686,8.8L29.941,87.688l-16.255.781.781-16.255L0,64.764,8.8,51.078,0,37.392l14.468-7.451-.781-16.255,16.255.781L37.392,0,51.078,8.8,64.764,0l7.451,14.468,16.255-.781-.781,16.255,14.468,7.451-8.8,13.686,8.8,13.686L87.688,72.215,88.47,88.47l-16.255-.781-7.451,14.468Z" transform="matrix(0.966, -0.259, 0.259, 0.966, 0, 26.44)" fill="#ececec" opacity="0.1"/>
      <path id="Star-2" data-name="Star" d="M44.729,77.42,34.145,84.228,28.384,73.04l-12.57.6.6-12.57L5.23,55.313l6.808-10.584L5.23,34.145l11.188-5.762-.6-12.57,12.57.6L34.145,5.23l10.584,6.808L55.313,5.23l5.762,11.188,12.57-.6-.6,12.57,11.188,5.762L77.419,44.729l6.808,10.584L73.04,61.074l.6,12.57-12.57-.6L55.313,84.228Z" transform="translate(17.829 17.829)" fill="#fcfcfd" opacity="0.7"/>
      <path id="Star-3" data-name="Star" d="M31.522,57.61l-8.446,5.433-4.6-8.928L8.446,54.6l.482-10.031L0,39.968l5.433-8.446L0,23.076l8.928-4.6L8.446,8.446l10.031.482L23.076,0l8.446,5.433L39.968,0l4.6,8.928L54.6,8.446l-.482,10.031,8.928,4.6L57.61,31.522l5.433,8.446-8.928,4.6L54.6,54.6l-10.031-.482-4.6,8.928Z" transform="matrix(0.966, -0.259, 0.259, 0.966, 23.952, 40.268)" fill="#fcfcfd" opacity="0.4"/>
      <path id="Star-4" data-name="Star" d="M25.475,46.558l-6.826,4.391-3.716-7.216-8.107.39.39-8.107L0,32.3l4.391-6.826L0,18.649l7.216-3.716-.39-8.107,8.107.39L18.649,0l6.826,4.391L32.3,0l3.716,7.216,8.107-.39-.39,8.107,7.216,3.716-4.391,6.826L50.949,32.3l-7.216,3.716.39,8.107-8.107-.39L32.3,50.949Z" transform="translate(27.759 53.233) rotate(-30)" fill="#fcfcfd"/>
    </g>
    <path id="POWER_BALL" data-name="POWER BALL" d="M-36.076,0h4.83V-3.68a17.811,17.811,0,0,0,2.323-.172A6.868,6.868,0,0,0-27.2-4.324a4.306,4.306,0,0,0,1.265-.828,5.293,5.293,0,0,0,.943-1.242A5.814,5.814,0,0,0-24.4-7.878a6.753,6.753,0,0,0,.2-1.622,6.758,6.758,0,0,0-.23-1.771,5.582,5.582,0,0,0-.667-1.541,5.422,5.422,0,0,0-1.035-1.208,4.018,4.018,0,0,0-1.334-.77,11.134,11.134,0,0,0-3.772-.552h-4.83Zm4.83-7.82V-11.2q2.024.023,2.024,1.7Q-29.222-7.843-31.246-7.82Zm7.653.161a7.839,7.839,0,0,0,.633,3.128,8.121,8.121,0,0,0,1.725,2.565A8.121,8.121,0,0,0-18.67-.242a7.839,7.839,0,0,0,3.128.633,7.839,7.839,0,0,0,3.128-.633A8.121,8.121,0,0,0-9.85-1.967,8.121,8.121,0,0,0-8.125-4.531a7.839,7.839,0,0,0,.632-3.128,7.814,7.814,0,0,0-.632-3.14A8.157,8.157,0,0,0-9.85-13.352a8.121,8.121,0,0,0-2.564-1.725,7.839,7.839,0,0,0-3.128-.632,7.839,7.839,0,0,0-3.128.632,8.121,8.121,0,0,0-2.564,1.725A8.157,8.157,0,0,0-22.96-10.8,7.814,7.814,0,0,0-23.592-7.659Zm4.83,0a3.131,3.131,0,0,1,.253-1.254,3.255,3.255,0,0,1,.69-1.023,3.255,3.255,0,0,1,1.023-.69,3.131,3.131,0,0,1,1.253-.253,3.131,3.131,0,0,1,1.253.253,3.256,3.256,0,0,1,1.024.69,3.255,3.255,0,0,1,.69,1.023,3.131,3.131,0,0,1,.253,1.254,3.131,3.131,0,0,1-.253,1.253,3.255,3.255,0,0,1-.69,1.023,3.255,3.255,0,0,1-1.024.69,3.131,3.131,0,0,1-1.253.253A3.131,3.131,0,0,1-16.8-4.692a3.255,3.255,0,0,1-1.023-.69,3.255,3.255,0,0,1-.69-1.023A3.131,3.131,0,0,1-18.762-7.659ZM-2.438,0H1.38L2.921-4.646,4.462,0H8.28l5.06-15.341h-5.2L6.371-9.982,4.6-15.341H1.242L-.529-9.982-2.3-15.341H-7.5ZM13.725,0h9.2V-4.025h-4.3V-5.8H22.7V-9.614H18.624v-1.7h4.14v-4.025H13.725ZM24.208,0h4.9V-3.772L31.591,0h5.566L34.282-5.06q.3-.253.483-.425t.322-.322l.253-.276a2.178,2.178,0,0,0,.23-.311,4.768,4.768,0,0,0,.644-1.38,5.6,5.6,0,0,0,.23-1.587,5.661,5.661,0,0,0-.61-2.542,6.019,6.019,0,0,0-1.645-2.059A6.1,6.1,0,0,0,32.212-15a8.659,8.659,0,0,0-2.576-.345H24.208Zm4.9-7.82V-11.2h.23a4.99,4.99,0,0,1,.713.034,1.48,1.48,0,0,1,.483.2,1.46,1.46,0,0,1,.609.61,1.78,1.78,0,0,1,.219.862,1.652,1.652,0,0,1-.219.84,1.66,1.66,0,0,1-.609.609,1.48,1.48,0,0,1-.483.2,4.99,4.99,0,0,1-.713.035h-.23ZM-35.012,23H-25a10.313,10.313,0,0,0,3.342-.507,7.086,7.086,0,0,0,2.538-1.47,6.415,6.415,0,0,0,1.61-2.327,7.954,7.954,0,0,0,.56-3.045,7.4,7.4,0,0,0-.665-3.325,5.159,5.159,0,0,0-2.135-2.17A6.041,6.041,0,0,0-18,5.885,6,6,0,0,0-18.58,3.3a5.908,5.908,0,0,0-1.663-2.1A6.752,6.752,0,0,0-22.43.022a9.91,9.91,0,0,0-2.922-.368h-9.66Zm7.21-5.5v-4.06h.49q3.01,0,3.01,1.995a1.77,1.77,0,0,1-.718,1.575,4.157,4.157,0,0,1-2.293.49Zm0-9.1V5.15h.49a2.73,2.73,0,0,1,1.61.368,1.412,1.412,0,0,1,.49,1.208,1.551,1.551,0,0,1-.49,1.3,2.633,2.633,0,0,1-1.61.385ZM-17.224,23h7.35l.77-2.1h7.07l.77,2.1h7.35L-2.769-.345h-5.6Zm10.08-7.245,1.575-4.095,1.575,4.095ZM6.759,23h14.21V16.945h-6.51V-.345h-7.7ZM22.1,23h14.21V16.945H29.8V-.345H22.1Z" transform="translate(59.804 59.163)" fill="#282222"/>
    <g id="Bitmap" transform="translate(90.929 11.01)">
      <ellipse id="Mask-3" data-name="Mask" cx="11.988" cy="11.988" rx="11.988" ry="11.988" fill="#ececec"/>
      <g id="Bitmap-2" data-name="Bitmap" clip-path="url(#clip-path)">
        <rect id="Bitmap-3" data-name="Bitmap" width="153.179" height="71.395" transform="translate(-64.468 -7.193)" fill="#fff"/>
      </g>
    </g>
    <g id="Bitmap-4" data-name="Bitmap" transform="translate(20.6 95.991)">
      <ellipse id="Mask-4" data-name="Mask" cx="10.922" cy="10.922" rx="10.922" ry="10.922" fill="#ececec"/>
      <g id="Bitmap-5" data-name="Bitmap" clip-path="url(#clip-path-2)">
        <rect id="Bitmap-6" data-name="Bitmap" width="139.592" height="65.267" transform="translate(-32.5 -35.164)" fill="#fff"/>
      </g>
    </g>
  </g>
</svg>
