<svg id="repeat" xmlns="http://www.w3.org/2000/svg" width="18.31" height="18.304" viewBox="0 0 18.31 18.304">
  <path id="Path" d="M15.946,7.49l-3.082-.342a.9.9,0,0,0-.734.257h0A.823.823,0,0,0,12.556,8.8l.651.127A7.022,7.022,0,0,1,9.143,10.2,7.1,7.1,0,0,1,2.279,1.28,1.019,1.019,0,0,0,.309.758a9.126,9.126,0,0,0,14.512,9.485l.2,1.016a.823.823,0,0,0,1.391.427h0a.9.9,0,0,0,.257-.734l-.343-3.082a.43.43,0,0,0-.38-.38Z" transform="translate(0 6.067)" fill="#191161"/>
  <path id="Path-2" data-name="Path" d="M7.53,0A9.166,9.166,0,0,0,1.853,1.994L1.654.978A.823.823,0,0,0,.264.551h0a.9.9,0,0,0-.257.734L.348,4.368a.43.43,0,0,0,.38.38L3.81,5.09a.9.9,0,0,0,.734-.257h0a.823.823,0,0,0-.427-1.391l-.651-.127A7.022,7.022,0,0,1,7.53,2.038a7.1,7.1,0,0,1,6.864,8.918,1.02,1.02,0,0,0,.724,1.246,1.033,1.033,0,0,0,.261.034,1.02,1.02,0,0,0,.985-.758A9.143,9.143,0,0,0,7.53,0Z" transform="translate(1.642 0)" fill="#191161"/>
</svg>
