<svg id="repeat2" xmlns="http://www.w3.org/2000/svg" width="22.959" height="22.951" viewBox="0 0 22.959 22.951">
  <path id="Path" d="M19.994,9.391l-3.865-.429a1.125,1.125,0,0,0-.92.323h0a1.032,1.032,0,0,0,.536,1.744l.816.16a8.8,8.8,0,0,1-5.1,1.6A8.908,8.908,0,0,1,2.858,1.605,1.278,1.278,0,0,0,.387.951a11.443,11.443,0,0,0,18.2,11.892l.249,1.274a1.032,1.032,0,0,0,1.744.536h0a1.125,1.125,0,0,0,.323-.92l-.43-3.864a.539.539,0,0,0-.476-.476Z" transform="translate(0 7.608)" fill="#bab6c9"/>
  <path id="Path-2" data-name="Path" d="M9.442,0A11.493,11.493,0,0,0,2.324,2.5L2.074,1.226A1.032,1.032,0,0,0,.331.69h0a1.125,1.125,0,0,0-.323.92L.436,5.476a.539.539,0,0,0,.476.476l3.865.429a1.125,1.125,0,0,0,.92-.323h0a1.032,1.032,0,0,0-.536-1.744l-.816-.159a8.8,8.8,0,0,1,5.1-1.6,8.908,8.908,0,0,1,8.607,11.182,1.278,1.278,0,0,0,.908,1.562,1.3,1.3,0,0,0,.328.043,1.278,1.278,0,0,0,1.235-.951A11.465,11.465,0,0,0,9.442,0Z" transform="translate(2.059)" fill="#bab6c9"/>
</svg>
