<svg id="snowflake" xmlns="http://www.w3.org/2000/svg" width="34.417" height="39.325" viewBox="0 0 34.417 39.325">
  <path id="Path" d="M33.745,27.66l-3.994-2.306,3.461-2.041A1.342,1.342,0,1,0,31.849,21l-4.768,2.811-7.189-4.151,7.188-4.15,4.769,2.811a1.342,1.342,0,0,0,1.363-2.312l-3.462-2.04,4-2.307A1.342,1.342,0,0,0,32.4,9.34l-3.994,2.306-.036-4.019a1.342,1.342,0,0,0-2.684.024l.05,5.536L18.55,17.338v-8.3l4.82-2.724A1.342,1.342,0,0,0,22.05,3.977l-3.5,1.978V1.342a1.342,1.342,0,0,0-2.684,0V5.955l-3.5-1.977a1.342,1.342,0,1,0-1.321,2.337l4.82,2.724v8.3L8.678,13.187l.05-5.536A1.342,1.342,0,0,0,7.4,6.3H7.385a1.342,1.342,0,0,0-1.342,1.33l-.036,4.019L2.013,9.34A1.342,1.342,0,0,0,.671,11.664l3.995,2.307L1.2,16.011a1.342,1.342,0,1,0,1.363,2.312l4.77-2.811,7.188,4.15L7.335,23.813,2.567,21A1.342,1.342,0,1,0,1.2,23.313l3.462,2.041L.671,27.66a1.342,1.342,0,1,0,1.342,2.324l3.994-2.306L6.044,31.7a1.342,1.342,0,0,0,1.342,1.33H7.4a1.342,1.342,0,0,0,1.33-1.354l-.05-5.536,7.189-4.151v8.3l-4.82,2.724a1.342,1.342,0,1,0,1.321,2.337l3.5-1.978v4.613a1.342,1.342,0,0,0,2.684,0V33.37l3.5,1.978a1.342,1.342,0,0,0,1.321-2.337l-4.82-2.724v-8.3l7.189,4.15-.051,5.536a1.342,1.342,0,0,0,1.329,1.354h.013a1.342,1.342,0,0,0,1.342-1.33l.037-4.02L32.4,29.985a1.342,1.342,0,1,0,1.342-2.324Z" fill="#3dabff"/>
</svg>
