<svg id="star_1_" data-name="star (1)" xmlns="http://www.w3.org/2000/svg" width="31.818" height="30.492" viewBox="0 0 31.818 30.492">
  <path id="Shape" d="M6.131,30.169a1.693,1.693,0,0,1-.657-1.746l2.048-9.017L.579,13.319a1.692,1.692,0,0,1,.958-2.959l9.185-.834,3.632-8.5a1.692,1.692,0,0,1,3.111,0l3.63,8.5,9.183.834a1.692,1.692,0,0,1,.962,2.959L24.3,19.406l2.048,9.017a1.692,1.692,0,0,1-2.517,1.828l-7.92-4.734L7.988,30.253a1.685,1.685,0,0,1-1.858-.083Z" transform="translate(0 0)" fill="#d63dff"/>
</svg>
