<svg xmlns="http://www.w3.org/2000/svg" width="27" height="27" viewBox="0 0 27 27">
  <g id="Group_87" data-name="Group 87" transform="translate(-44 -176)">
    <path id="Path_76" data-name="Path 76" d="M45,177v22.727A2.226,2.226,0,0,0,47.273,202H70" fill="none" stroke="#1a0f54" stroke-linecap="round" stroke-linejoin="round" stroke-miterlimit="10" stroke-width="2"/>
    <path id="Path_77" data-name="Path 77" d="M49,200.5V189.136A1.074,1.074,0,0,1,50.136,188h3.409a1.074,1.074,0,0,1,1.136,1.136V200.5" transform="translate(0.545 1.5)" fill="none" stroke="#1a0f54" stroke-linecap="round" stroke-linejoin="round" stroke-miterlimit="10" stroke-width="2"/>
    <path id="Path_78" data-name="Path 78" d="M54,190.5V179.136A1.074,1.074,0,0,1,55.136,178h3.409a1.074,1.074,0,0,1,1.136,1.136V190.5" transform="translate(1.227 0.136)" fill="none" stroke="#1a0f54" stroke-linecap="round" stroke-linejoin="round" stroke-miterlimit="10" stroke-width="2"/>
    <path id="Path_79" data-name="Path 79" d="M59,201.045V185.136A1.074,1.074,0,0,1,60.136,184h3.409a1.074,1.074,0,0,1,1.136,1.136v15.909" transform="translate(1.909 0.955)" fill="none" stroke="#1a0f54" stroke-linecap="round" stroke-linejoin="round" stroke-miterlimit="10" stroke-width="2"/>
  </g>
</svg>
