<svg xmlns="http://www.w3.org/2000/svg" xmlns:xlink="http://www.w3.org/1999/xlink" width="59.747" height="59.747" viewBox="0 0 59.747 59.747">
  <defs>
    <filter id="Oval" x="0" y="0" width="59.747" height="59.747" filterUnits="userSpaceOnUse">
      <feOffset dy="3" input="SourceAlpha"/>
      <feGaussianBlur stdDeviation="3" result="blur"/>
      <feFlood flood-opacity="0.161"/>
      <feComposite operator="in" in2="blur"/>
      <feComposite in="SourceGraphic"/>
    </filter>
  </defs>
  <g id="Twitter" transform="translate(9 6)">
    <g transform="matrix(1, 0, 0, 1, -9, -6)" filter="url(#Oval)">
      <circle id="Oval-2" data-name="Oval" cx="20.873" cy="20.873" r="20.873" transform="translate(9 6)" fill="#2aa3ef"/>
    </g>
    <path id="Twitter-2" data-name="Twitter" d="M17.127,1.647a7.048,7.048,0,0,1-2.018.554A3.524,3.524,0,0,0,16.653.257a7.022,7.022,0,0,1-2.232.852,3.516,3.516,0,0,0-6.079,2.4,3.553,3.553,0,0,0,.092.8A9.974,9.974,0,0,1,1.193.643,3.517,3.517,0,0,0,2.28,5.333,3.485,3.485,0,0,1,.689,4.894v.045A3.514,3.514,0,0,0,3.507,8.383a3.508,3.508,0,0,1-.926.123,3.456,3.456,0,0,1-.661-.064A3.519,3.519,0,0,0,5.2,10.883a7.059,7.059,0,0,1-4.365,1.5A7.082,7.082,0,0,1,0,12.337a9.943,9.943,0,0,0,5.387,1.579,9.928,9.928,0,0,0,10-10c0-.153,0-.3-.01-.454a7.142,7.142,0,0,0,1.753-1.818Z" transform="translate(12.31 13.916)" fill="#fff"/>
  </g>
</svg>
