<svg id="Twitter" xmlns="http://www.w3.org/2000/svg" width="41.747" height="41.747" viewBox="0 0 41.747 41.747">
  <circle id="Oval" cx="20.873" cy="20.873" r="20.873" transform="translate(0)" fill="#2aa3ef"/>
  <path id="Twitter-2" data-name="Twitter" d="M17.127,1.647a7.048,7.048,0,0,1-2.018.554A3.524,3.524,0,0,0,16.653.257a7.022,7.022,0,0,1-2.232.852,3.516,3.516,0,0,0-6.079,2.4,3.553,3.553,0,0,0,.092.8A9.974,9.974,0,0,1,1.193.643,3.517,3.517,0,0,0,2.28,5.333,3.485,3.485,0,0,1,.689,4.894v.045A3.514,3.514,0,0,0,3.507,8.383a3.508,3.508,0,0,1-.926.123,3.456,3.456,0,0,1-.661-.064A3.519,3.519,0,0,0,5.2,10.883a7.059,7.059,0,0,1-4.365,1.5A7.082,7.082,0,0,1,0,12.337a9.943,9.943,0,0,0,5.387,1.579,9.928,9.928,0,0,0,10-10c0-.153,0-.3-.01-.454a7.142,7.142,0,0,0,1.753-1.818Z" transform="translate(12.31 13.916)" fill="#fff"/>
</svg>
