<svg id="Visa" xmlns="http://www.w3.org/2000/svg" width="73.601" height="22.592" viewBox="0 0 73.601 22.592">
  <path id="Path_229" data-name="Path 229" d="M61.9,22.779,65.63.9h5.952l-3.73,21.879Z" transform="translate(-35.955 -0.523)" fill="#2699fb"/>
  <path id="Path_230" data-name="Path 230" d="M102.9.922A14.841,14.841,0,0,0,97.574,0c-5.91,0-10.059,2.976-10.059,7.209-.042,3.144,2.976,4.9,5.239,5.952,2.305,1.09,3.1,1.76,3.1,2.724,0,1.467-1.844,2.138-3.563,2.138a12.82,12.82,0,0,1-5.617-1.132l-.838-.377L85,21.418a18.834,18.834,0,0,0,6.664,1.174c6.287,0,10.353-2.934,10.395-7.461.042-2.473-1.551-4.4-4.988-5.952-2.1-1.006-3.353-1.677-3.353-2.724,0-.922,1.09-1.886,3.4-1.886a10.322,10.322,0,0,1,4.443.838l.545.251.8-4.736" transform="translate(-49.373 0)" fill="#2699fb"/>
  <path id="Path_231" data-name="Path 231" d="M141.2,1h-4.611a2.987,2.987,0,0,0-3.144,1.8L124.6,22.837h6.245s1.006-2.683,1.257-3.269h7.628c.168.754.713,3.269.713,3.269h5.533L141.2,1m-7.335,14.083c.5-1.257,2.389-6.119,2.389-6.119-.042.042.5-1.257.8-2.1l.419,1.886s1.132,5.239,1.383,6.329Z" transform="translate(-72.375 -0.581)" fill="#2699fb"/>
  <path id="Path_232" data-name="Path 232" d="M29.612.9,23.744,15.822,23.115,12.8C22.067,9.325,18.672,5.511,14.9,3.624l5.323,19.155h6.329L35.941.9H29.612" transform="translate(-8.655 -0.523)" fill="#2699fb"/>
  <path id="Path_233" data-name="Path 233" d="M9.682.9H.084L0,1.361c7.5,1.8,12.449,6.2,14.5,11.443l-2.1-10.059A2.522,2.522,0,0,0,9.682.9" transform="translate(0 -0.523)" fill="#bce0fd"/>
</svg>
