<svg xmlns="http://www.w3.org/2000/svg" width="26.688" height="26.688" viewBox="0 0 26.688 26.688">
  <g id="Group_44" data-name="Group 44" transform="translate(-220 -44)">
    <g id="Group_43" data-name="Group 43" transform="translate(221 45)">
      <g id="Group_42" data-name="Group 42">
        <path id="Path_37" data-name="Path 37" d="M221,55.1V47.244A2.2,2.2,0,0,1,223.244,45h8.977a2.2,2.2,0,0,1,2.244,2.244h5.611a1.1,1.1,0,0,1,1.122,1.122v3.366" transform="translate(-221 -45)" fill="none" stroke="#1a0f54" stroke-linecap="round" stroke-linejoin="round" stroke-miterlimit="10" stroke-width="2"/>
        <path id="Path_38" data-name="Path 38" d="M228,51h13.466a3.306,3.306,0,0,1,3.366,3.366V65.588a3.306,3.306,0,0,1-3.366,3.366h-8.977" transform="translate(-220.145 -44.267)" fill="none" stroke="#1a0f54" stroke-linecap="round" stroke-linejoin="round" stroke-miterlimit="10" stroke-width="2"/>
      </g>
    </g>
    <path id="Path_39" data-name="Path 39" d="M222,62.489l2.244,2.244L230.977,58" transform="translate(0.122 1.588)" fill="none" stroke="#1a0f54" stroke-linecap="round" stroke-linejoin="round" stroke-miterlimit="10" stroke-width="2"/>
  </g>
</svg>
