<svg xmlns="http://www.w3.org/2000/svg" width="24.688" height="24.688" viewBox="0 0 24.688 24.688">
  <g id="withdraw" transform="translate(24.688 24.688) rotate(-180)">
    <path id="Path" d="M7.037,8.138,5.256,9.9V.964a.964.964,0,1,0-1.929,0V9.8L1.642,8.138A.964.964,0,0,0,.287,9.51l2.005,1.982a2.886,2.886,0,0,0,4.1,0L8.393,9.51A.964.964,0,0,0,7.037,8.138Z" transform="translate(8.052 12.344)" fill="#1a0f54"/>
    <path id="Path-2" data-name="Path" d="M8.486,0a.964.964,0,0,0-.964.964A1.931,1.931,0,0,1,5.593,2.893H.964a.964.964,0,0,0,0,1.929H5.593A3.862,3.862,0,0,0,9.451.964.964.964,0,0,0,8.486,0Z" transform="translate(15.237 13.308)" fill="#1a0f54"/>
    <path id="Path-3" data-name="Path" d="M7.53,8.435a.964.964,0,0,0,1.333-.289A5.424,5.424,0,0,0,9.74,5.208,5.053,5.053,0,0,0,4.87,0,5.053,5.053,0,0,0,0,5.208,5.3,5.3,0,0,0,.831,8.15.964.964,0,1,0,2.448,7.1a3.407,3.407,0,0,1-.519-1.891A3.127,3.127,0,0,1,4.87,1.929,3.127,3.127,0,0,1,7.811,5.208,3.5,3.5,0,0,1,7.242,7.1.964.964,0,0,0,7.53,8.435Z" transform="translate(7.474 3.803)" fill="#1a0f54"/>
    <circle id="Oval" cx="0.964" cy="0.964" r="0.964" transform="translate(19.046 8.052)" fill="#1a0f54"/>
    <circle id="Oval-2" data-name="Oval" cx="0.964" cy="0.964" r="0.964" transform="translate(3.713 8.052)" fill="#1a0f54"/>
    <path id="Path-4" data-name="Path" d="M20.83,0H3.857A3.862,3.862,0,0,0,0,3.857V14.272A3.862,3.862,0,0,0,3.857,18.13H8.486a.964.964,0,1,0,0-1.929H3.857a1.931,1.931,0,0,1-1.929-1.929V3.857A1.931,1.931,0,0,1,3.857,1.929H20.83a1.931,1.931,0,0,1,1.929,1.929V9.451a.964.964,0,0,0,1.929,0V3.857A3.862,3.862,0,0,0,20.83,0Z" fill="#1a0f54"/>
  </g>
</svg>
