<svg id="xrp" xmlns="http://www.w3.org/2000/svg" width="63.417" height="63.417" viewBox="0 0 63.417 63.417">
  <g id="xrp-2" data-name="xrp">
    <circle id="Oval" cx="31.709" cy="31.709" r="31.709" fill="#23292f"/>
    <path id="Shape" d="M5.735,32.825h0ZM0,32.825,12,20.948a11.139,11.139,0,0,1,15.636,0l12,11.874H33.9l-9.126-9.04a7.046,7.046,0,0,0-9.9,0L5.735,32.825ZM12,11.806.07,0H5.807l9.057,8.964a7.046,7.046,0,0,0,9.9,0L33.829,0h5.728L27.636,11.806a11.139,11.139,0,0,1-15.636,0Z" transform="translate(11.891 15.854)" fill="#fff"/>
  </g>
</svg>
