<svg id="Youtube" xmlns="http://www.w3.org/2000/svg" width="41.747" height="41.747" viewBox="0 0 41.747 41.747">
  <circle id="Oval" cx="20.873" cy="20.873" r="20.873" transform="translate(0)" fill="#f52929"/>
  <path id="Youtube-2" data-name="Youtube" d="M9.634,14.986h0c-.05,0-5.034-.036-6.544-.2-.081-.019-.18-.033-.295-.05a2.7,2.7,0,0,1-1.832-.87A5.124,5.124,0,0,1,.2,11.75,34.114,34.114,0,0,1,0,8.311v-1.6C0,5,.2,3.253.2,3.236A4.659,4.659,0,0,1,.963,1.124,2.625,2.625,0,0,1,2.832.244h0l.054,0C5.549.037,9.593,0,9.634,0s4.085.037,6.744.238l.091.008a2.453,2.453,0,0,1,1.835.878,5.124,5.124,0,0,1,.764,2.112c0,.017.2,1.759.2,3.474v1.6c0,1.68-.2,3.422-.2,3.44a5.126,5.126,0,0,1-.764,2.112,2.625,2.625,0,0,1-1.869.88h0l-.054,0C13.718,14.983,9.674,14.986,9.634,14.986ZM7.308,4.053v7.391l6.312-3.61Z" transform="translate(11.239 13.38)" fill="#fff"/>
</svg>
